<?xml version="1.0" encoding="utf-8"?>
<!-- Generator: Adobe Illustrator 26.1.0, SVG Export Plug-In . SVG Version: 6.00 Build 0)  -->
<svg version="1.1" id="Layer_1" xmlns="http://www.w3.org/2000/svg" xmlns:xlink="http://www.w3.org/1999/xlink" x="0px" y="0px"
	 viewBox="0 0 700 700" style="enable-background:new 0 0 700 700;" xml:space="preserve">
<style type="text/css">
	.st0{fill-rule:evenodd;clip-rule:evenodd;fill:#2081E2;}
	.st1{fill:#2081E2;}
</style>
<path class="st0" d="M313,174.1l-37.2-10c-18.7-5-37.9,6.1-42.9,24.7l-11.8,44.1h-38.5c-19.3,0-35,15.7-35,35v280
	c0,19.3,15.7,35,35,35h186.7c19.3,0,35-15.7,35-35v-6.8l11.1-41.3L558,263.1c0-0.1,0.1-0.1,0.1-0.2c9.7-16.7,3.9-38.1-12.8-47.8
	l-161.7-93.3c-16.7-9.7-38.1-3.9-47.8,12.8L313,174.1L313,174.1z M230.3,256.2h-0.4h-47.3c-6.4,0-11.7,5.2-11.7,11.7v280
	c0,6.4,5.2,11.7,11.7,11.7h186.7c6.4,0,11.7-5.2,11.7-11.7v-8.1v-0.4V267.9c0-6.4-5.2-11.7-11.7-11.7L230.3,256.2L230.3,256.2z
	 M281.9,328.7c-3.7-2.2-8.3-2.2-12,0l-58.3,35c-3.5,2.1-5.7,5.9-5.7,10v70c0,4.1,2.1,7.9,5.7,10l58.3,35c3.7,2.2,8.3,2.2,12,0
	l58.3-35c3.5-2.1,5.7-5.9,5.7-10v-70c0-4.1-2.1-7.9-5.7-10L281.9,328.7z M275.9,352.4l46.7,28v56.8l-46.7,28l-46.7-28v-56.8
	L275.9,352.4z M315.5,198.9l-45.7-12.2c-6.2-1.7-12.6,2-14.3,8.2l-10.2,38h124c19.3,0,35,15.7,35,35V451l54.1-201.7
	c1.7-6.2-2-12.6-8.2-14.3l-134.2-36C315.7,199,315.6,198.9,315.5,198.9L315.5,198.9z M437.2,418.4C479.4,348.3,538,251.1,538,251.1
	c3.1-5.5,1.1-12.6-4.4-15.8L372,142c-5.6-3.2-12.7-1.3-15.9,4.3l-19.7,34.1l119.8,32.1c18.7,5,29.8,24.2,24.8,42.9L437.2,418.4z"/>
</svg>
