<?xml version="1.0" encoding="utf-8"?>
<!-- Generator: Adobe Illustrator 26.1.0, SVG Export Plug-In . SVG Version: 6.00 Build 0)  -->
<svg version="1.1" id="Layer_1" xmlns="http://www.w3.org/2000/svg" xmlns:xlink="http://www.w3.org/1999/xlink" x="0px" y="0px"
	 viewBox="0 0 700 700" style="enable-background:new 0 0 700 700;" xml:space="preserve">
<style type="text/css">
	.st0{fill-rule:evenodd;clip-rule:evenodd;fill:#2081E2;}
	.st1{fill:#2081E2;}
</style>
<g>
	<g>
		<path class="st1" d="M433.4,412.8l-15,30.4l-33.7,4.9h0c-2.3,0.3-4.2,1.9-5,4.1c-0.7,2.2-0.1,4.7,1.6,6.3l24.4,23.7l-5.7,33.6h0
			c-0.2,2.2,0.8,4.4,2.6,5.7c1.8,1.3,4.2,1.4,6.2,0.4l30.4-15.8l30.4,15.8c0.9,0.5,1.9,0.7,2.9,0.7c1.3,0,2.5-0.4,3.6-1.2
			c1.9-1.4,2.8-3.8,2.4-6.1l-5.7-33.6l24.4-23.7c1.7-1.6,2.3-4.1,1.6-6.3c-0.7-2.2-2.7-3.8-5-4.1l-33.7-4.9l-15-30.4
			c-1-2.4-3.3-3.9-5.9-3.8C436.4,408.7,434.1,410.4,433.4,412.8L433.4,412.8z M449.9,451.6c0.9,1.8,2.6,3.1,4.6,3.3l24.4,3.6
			L461,476c-1.4,1.4-2.1,3.4-1.8,5.4l4.2,24.4l-22-11.6c-1.8-1-3.9-1-5.7,0l-21.7,11.7l4.2-24.4c0.3-2-0.3-4-1.8-5.4l-17.8-17.4
			l24.4-3.6c2-0.3,3.7-1.5,4.6-3.3l11.3-22.5L449.9,451.6z"/>
		<path class="st1" d="M472.4,525.2c-1.5,0-2.9-0.4-4.1-1L439.1,509l-29.3,15.2c-2.8,1.5-6.2,1.2-8.8-0.6c-1.8-1.3-3.1-3.1-3.5-5.2
			h-0.6l6-35.2l-23.4-22.8c-2.3-2.3-3.2-5.7-2.2-8.8c1-3.1,3.8-5.4,7-5.8l32.4-4.7l14.4-29.1c1.2-3.3,4.3-5.6,7.8-5.8
			c3.6-0.1,6.9,2,8.2,5.3l14.4,29.2l32.4,4.7c3.2,0.4,6,2.7,7,5.8c1,3.1,0.2,6.6-2.2,8.8l-23.4,22.8l5.5,32.3
			c0.6,3.2-0.7,6.6-3.4,8.5C475.9,524.6,474.2,525.2,472.4,525.2z M439.1,503.3l31.6,16.4c0.5,0.3,1.1,0.4,1.7,0.4
			c0.7,0,1.5-0.3,2.1-0.7c1.1-0.8,1.6-2.2,1.4-3.6l-6-35l25.3-24.7c1-1,1.3-2.4,0.9-3.7c-0.4-1.3-1.6-2.3-2.9-2.4l-35.1-5.1
			l-15.7-31.8c-0.6-1.4-1.9-2.3-3.5-2.2c-1.5,0.1-2.8,1.1-3.3,2.5l-0.1,0.3L420,445.6l-35,5.1c-1.4,0.2-2.5,1.1-2.9,2.4
			c-0.4,1.3-0.1,2.7,0.9,3.7l25.3,24.7l-5.9,34.8c-0.1,1.3,0.4,2.6,1.5,3.3c1.1,0.7,2.5,0.8,3.7,0.2L439.1,503.3z M410.6,510.5
			l5.1-29.4c0.2-1.1-0.2-2.3-1-3.1L393.2,457l29.3-4.3c1.2-0.2,2.2-0.9,2.8-2l13.6-27l13.2,26.8c0.5,1.1,1.5,1.8,2.7,2l29.4,4.3
			l-21.5,20.9c-0.8,0.8-1.2,2-1,3.2l5.1,29.3l-26.5-13.9c-1.1-0.6-2.3-0.6-3.4,0L410.6,510.5z M403.9,460.5l14.2,13.9
			c2,2,2.9,4.8,2.5,7.6l-3.3,19.3l17.2-9.3c2.5-1.4,5.6-1.4,8.1,0l17.5,9.2l-3.3-19.4c-0.5-2.8,0.5-5.6,2.5-7.6l14.2-13.9l-19.4-2.9
			c-2.8-0.4-5.2-2.2-6.5-4.7l-8.8-17.8l-9.1,18c-1.2,2.5-3.7,4.3-6.5,4.7L403.9,460.5z"/>
	</g>
	<g>
		<path class="st1" d="M472.4,525.2c-1.5,0-2.9-0.4-4.1-1L439.1,509l-29.3,15.2c-2.8,1.5-6.2,1.2-8.8-0.6c-1.8-1.3-3.1-3.1-3.5-5.2
			h-0.6l6-35.2l-23.4-22.8c-2.3-2.3-3.2-5.7-2.2-8.8c1-3.1,3.8-5.4,7-5.8l32.4-4.7l14.4-29.1c1.2-3.3,4.3-5.6,7.8-5.8
			c3.6-0.1,6.9,2,8.2,5.3l14.4,29.2l32.4,4.7c3.2,0.4,6,2.7,7,5.8c1,3.1,0.2,6.6-2.2,8.8l-23.4,22.8l5.5,32.3
			c0.6,3.2-0.7,6.6-3.4,8.5C475.9,524.6,474.2,525.2,472.4,525.2z M439.1,503.3l31.6,16.4c0.5,0.3,1.1,0.4,1.7,0.4
			c0.7,0,1.5-0.3,2.1-0.7c1.1-0.8,1.6-2.2,1.4-3.6l-6-35l25.3-24.7c1-1,1.3-2.4,0.9-3.7c-0.4-1.3-1.6-2.3-2.9-2.4l-35.1-5.1
			l-15.7-31.8c-0.6-1.4-1.9-2.3-3.5-2.2c-1.5,0.1-2.8,1.1-3.3,2.5l-0.1,0.3L420,445.6l-35,5.1c-1.4,0.2-2.5,1.1-2.9,2.4
			c-0.4,1.3-0.1,2.7,0.9,3.7l25.3,24.7l-5.9,34.8c-0.1,1.3,0.4,2.6,1.5,3.3c1.1,0.7,2.5,0.8,3.7,0.2L439.1,503.3z M410.6,510.5
			l5.1-29.4c0.2-1.1-0.2-2.3-1-3.1L393.2,457l29.3-4.3c1.2-0.2,2.2-0.9,2.8-2l13.6-27l13.2,26.8c0.5,1.1,1.5,1.8,2.7,2l29.4,4.3
			l-21.5,20.9c-0.8,0.8-1.2,2-1,3.2l5.1,29.3l-26.5-13.9c-1.1-0.6-2.3-0.6-3.4,0L410.6,510.5z M403.9,460.5l14.2,13.9
			c2,2,2.9,4.8,2.5,7.6l-3.3,19.3l17.2-9.3c2.5-1.4,5.6-1.4,8.1,0l17.5,9.2l-3.3-19.4c-0.5-2.8,0.5-5.6,2.5-7.6l14.2-13.9l-19.4-2.9
			c-2.8-0.4-5.2-2.2-6.5-4.7l-8.8-17.8l-9.1,18c-1.2,2.5-3.7,4.3-6.5,4.7L403.9,460.5z"/>
		<path class="st1" d="M472.4,527.7L472.4,527.7c-1.9,0-3.7-0.5-5.3-1.3l-28.1-14.6L411,526.4c-3.7,1.9-8,1.6-11.4-0.7
			c-1.8-1.2-3.1-2.9-3.9-4.8h-1.8l6.3-36.9l-22.5-21.9c-3-2.9-4.1-7.4-2.8-11.4c1.3-4,4.9-7,9-7.5l31.1-4.5l13.7-27.8
			c1.5-4.2,5.5-7.1,10-7.3c4.5-0.2,8.8,2.5,10.6,6.7l13.8,27.9l31.1,4.5c4.1,0.6,7.7,3.5,9,7.5c1.3,4,0.2,8.5-2.8,11.4L478,483.6
			l5.3,31c0.8,4.1-0.9,8.4-4.3,11C477,527,474.8,527.7,472.4,527.7L472.4,527.7z M472.2,522.7c0.1,0,0.2,0,0.3,0
			C472.3,522.7,472.2,522.7,472.2,522.7z M405.2,522.6c1,0.1,2.1,0,3.1-0.5C407.3,522.6,406.3,522.7,405.2,522.6z M475.7,521.7
			c-0.6,0.4-1.3,0.7-2,0.8C474.4,522.4,475.1,522.1,475.7,521.7z M399.7,516.8l0.2,1.1c0.3,1.5,1.2,2.8,2.4,3.6
			c-1.8-1.3-2.7-3.4-2.5-5.6l0,0L399.7,516.8z M476,501.9l2.3,13.6c0.3,1.5,0,3-0.7,4.2c0.7-1.2,1-2.8,0.7-4.2L476,501.9z
			 M439.1,500.5l32.7,17c0.2,0.1,0.4,0.2,0.6,0.2c0.2,0,0.5-0.1,0.7-0.3c0.2-0.2,0.4-0.6,0.3-1l-6.2-36.3l26.2-25.6
			c0.3-0.3,0.4-0.7,0.3-1.1c-0.1-0.4-0.5-0.7-0.9-0.7l-36.4-5.3l-16.4-33.1c-0.2-0.4-0.6-0.7-1-0.7c-0.5,0-0.9,0.3-1,0.8l-0.3,0.7
			l-16.2,32.8l-36.3,5.2c-0.4,0.1-0.8,0.4-0.9,0.7c-0.1,0.4,0,0.8,0.3,1.1l26.2,25.6l-6.1,36c0,0.4,0.2,0.7,0.5,1
			c0.3,0.2,0.8,0.3,1.1,0.1L439.1,500.5z M401.6,445.7l-17,2.5c-2.3,0.3-4.3,1.9-5,4.1c-0.7,2.2-0.1,4.7,1.5,6.3l5.2,5.1l-5.2-5.1
			c-1.7-1.6-2.3-4.1-1.5-6.3s2.7-3.8,5-4.1L401.6,445.7z M494,447.8c2.1,0.4,3.9,2,4.6,4.1c0.7,2.2,0.1,4.7-1.6,6.3l-1.8,1.7
			l1.8-1.7c1.7-1.6,2.3-4.1,1.6-6.3C497.9,449.8,496.1,448.2,494,447.8z M425.9,428l-7.6,15.3L425.9,428z M433.4,412.7L433.4,412.7
			L433.4,412.7C433.4,412.7,433.4,412.7,433.4,412.7z M407.3,515.2l6-34.5c0.1-0.3-0.1-0.7-0.3-0.9l-25.1-24.5l34.3-5.1
			c0.4-0.1,0.7-0.3,0.9-0.6l15.9-31.5l15.5,31.4c0.2,0.3,0.5,0.6,0.8,0.6l34.4,5.1l-25.1,24.5c-0.3,0.3-0.4,0.6-0.3,1l5.9,34.3
			l-31-16.3c-0.3-0.2-0.7-0.2-1,0L407.3,515.2z M418.2,480.9c0,0.2,0,0.4-0.1,0.5l-4.2,24.4l0,0l4.2-24.4
			C418.2,481.3,418.2,481.1,418.2,480.9z M440.8,493.8c0.2,0.1,0.4,0.2,0.6,0.3l14,7.3l-14-7.4C441.2,494,441,493.9,440.8,493.8z
			 M409.3,462.2l10.6,10.4c2.6,2.5,3.8,6.2,3.2,9.7l-2.5,14.2l12.7-6.9c3.3-1.8,7.2-1.8,10.5,0l13,6.8l-2.5-14.4
			c-0.6-3.6,0.6-7.3,3.2-9.8l10.6-10.3l-14.4-2.1c-3.6-0.5-6.8-2.8-8.4-6.1l-6.6-13.3L432,454c-1.6,3.3-4.8,5.5-8.4,6.1L409.3,462.2
			z M435.8,494c0,0-0.1,0-0.1,0.1l-2.2,1.2l2.2-1.2C435.7,494.1,435.8,494.1,435.8,494z M459.2,480.8c0,0.2,0,0.4,0.1,0.6l1.2,6.9
			l-1.2-6.9C459.2,481.2,459.2,481,459.2,480.8z M460.2,477C460.2,477,460.2,477,460.2,477C460.2,477,460.2,477,460.2,477z
			 M460.9,476.1c-0.3,0.3-0.5,0.6-0.8,0.9C460.4,476.7,460.6,476.4,460.9,476.1z M398.5,458.7l16.8,16.4L398.5,458.7z M478.8,458.6
			L464,473.1L478.8,458.6z M429.7,447.4l-2.2,4.4c-0.9,1.8-2.6,3-4.6,3.3l-12.9,1.9l12.9-1.9c2-0.3,3.8-1.5,4.6-3.3L429.7,447.4z
			 M438.8,429.3l11,22.3c0.9,1.8,2.6,3.1,4.6,3.3l6.6,1l-6.6-1c-2-0.3-3.7-1.5-4.6-3.3L438.8,429.3z"/>
	</g>
</g>
<g>
	<g>
		<path class="st1" d="M222.5,177.1v18.3h-6.1c-8.1,0-15.8,3.2-21.5,8.9c-5.7,5.7-8.9,13.5-8.9,21.5v267.9c0,8.1,3.2,15.8,8.9,21.5
			c5.7,5.7,13.5,8.9,21.5,8.9h148.1c19.8,25.5,51.3,39,83.4,35.9s60.4-22.4,75.1-51.1c14.6-28.8,13.5-63-2.9-90.8
			c-16.4-27.8-45.9-45.2-78.1-46.3V225.8c0-8.1-3.2-15.8-8.9-21.5c-5.7-5.7-13.5-8.9-21.5-8.9h-6.1v-18.3h-12.2v18.3h-30.4v-18.3
			h-12.2v18.3h-30.4v-18.3H308v18.3h-30.4v-18.3h-12.2v18.3h-30.7v-18.3L222.5,177.1z M216.4,512c-4.8,0-9.5-1.9-12.9-5.3
			c-3.4-3.4-5.4-8.1-5.4-12.9V256.3h231.3v116.2c-17.5,1.7-34.2,8.2-48.2,18.9c-14,10.7-24.7,25-31,41.5h-36.5V445h32.9
			c-1.6,7-2.5,14.1-2.5,21.3c0.1,16,4.2,31.7,12.1,45.7L216.4,512z M520.8,466.3c0,21.8-8.7,42.7-24.1,58.1
			c-15.4,15.4-36.4,24.1-58.2,24c-21.8,0-42.7-8.7-58.1-24.2c-15.4-15.4-24-36.4-24-58.2c0-21.8,8.8-42.7,24.2-58.1
			c15.5-15.4,36.4-24,58.2-23.9c21.8,0,42.7,8.7,58.1,24.1c15.4,15.4,24.1,36.3,24.1,58.1L520.8,466.3z M265.6,207.5v18.3h12.2
			v-18.3h30.4v18.3h12.2v-18.3h30.4v18.3H363v-18.3h30.4v18.3h12.2v-18.3h6.1c4.8,0,9.5,1.9,12.9,5.3c3.4,3.4,5.4,8.1,5.4,12.9v18.3
			H198.4v-18.3c0-4.8,1.9-9.5,5.3-12.9s8.1-5.3,12.9-5.3h6.1v18.3h12.2v-18.3H265.6z"/>
		<path class="st1" d="M438.7,563c-29.3,0-56.9-13.2-75.5-36.4H216.4c-8.8,0-17.1-3.4-23.3-9.6c-6.2-6.2-9.6-14.5-9.6-23.3V225.8
			c0-8.8,3.4-17.1,9.6-23.3c6.2-6.2,14.5-9.6,23.3-9.6h3.6v-18.3l17.2,0v18.3h25.7v-18.3H280v18.3h25.4v-18.3h17.2v18.3h25.4v-18.3
			h17.2v18.3h25.4v-18.3h17.2v18.3h3.6c8.8,0,17.1,3.4,23.3,9.6c6.2,6.2,9.6,14.5,9.6,23.3v143.7c32.3,1.8,61.3,19.4,77.8,47.4
			c16.9,28.7,18,63.5,2.9,93.2c-15.1,29.7-43.9,49.3-77,52.5C444.9,562.8,441.8,563,438.7,563z M216.4,197.9
			c-7.5,0-14.5,2.9-19.8,8.2c-5.3,5.3-8.2,12.3-8.2,19.8v267.9c0,7.5,2.9,14.5,8.2,19.8c5.3,5.3,12.3,8.2,19.8,8.2h149.3l0.8,1
			c19.4,24.9,49.8,38,81.2,35c31.4-3,58.7-21.6,73.1-49.8c14.3-28.1,13.3-61.2-2.8-88.4c-16.1-27.2-44.5-44-76.1-45l-2.4-0.1V225.8
			c0-7.5-2.9-14.5-8.2-19.8c-5.3-5.3-12.3-8.2-19.8-8.2h-8.6v-18.3h-7.2v18.3h-35.4v-18.3h-7.2v18.3h-35.4v-18.3h-7.2v18.3H275
			v-18.3h-7.2v18.3h-35.7v-18.3l-7.2,0v18.3H216.4z M438.6,551C438.6,551,438.5,551,438.6,551c-22.7,0-44-8.9-60-24.9
			c-16-16-24.8-37.3-24.7-60c0-22.6,8.9-43.9,25-59.9c16-15.9,37.2-24.7,59.7-24.7c0.1,0,0.2,0,0.3,0c22.6,0,43.9,8.9,59.8,24.8
			c16,16,24.8,37.2,24.8,59.8l0,2.5h-0.3c-0.6,21.7-9.4,42-24.8,57.4C482.5,542.2,461.2,551,438.6,551z M438.6,386.6
			c-21.2,0-41.2,8.2-56.2,23.2c-15.1,15-23.4,35-23.5,56.3c0,21.3,8.2,41.3,23.3,56.4c15,15.1,35.1,23.4,56.4,23.4c0,0,0.1,0,0.1,0
			c21.3,0,41.3-8.3,56.3-23.3c15.1-15.1,23.4-35.1,23.4-56.4v-2.5h0.2c-0.7-20.3-8.9-39.4-23.3-53.8c-15-15-35-23.3-56.3-23.4
			C438.8,386.6,438.7,386.6,438.6,386.6z M360.6,514.5l-144.3,0c-5.5,0-10.8-2.2-14.7-6.1c-3.9-3.9-6.1-9.2-6.1-14.7V253.8H432
			v120.9l-2.3,0.2c-17.1,1.6-33.3,8-46.9,18.4c-13.6,10.4-24,24.4-30.1,40.4l-0.6,1.6h-35.8v7.2h33.6l-0.7,3.1
			c-1.6,6.8-2.4,13.8-2.4,20.7c0.1,15.5,4.1,30.9,11.8,44.4L360.6,514.5z M200.6,258.8v234.9c0,4.2,1.7,8.2,4.6,11.1
			c3,3,6.9,4.6,11.1,4.6l135.8,0c-6.8-13.3-10.4-28.2-10.4-43.2c0-6.3,0.7-12.6,1.9-18.8h-32.3v-17.2h37.3
			c6.5-16.2,17.2-30.4,31.2-41c13.8-10.5,30-17.1,47.2-19.2V258.8H200.6z M432.4,246.6H195.9v-20.8c0-5.5,2.2-10.8,6.1-14.7
			c3.9-3.9,9.2-6.1,14.7-6.1h8.6v18.3h7.2V205h35.7v18.3h7.2V205h35.4v18.3h7.2V205h35.4v18.3h7.2V205h35.4v18.3h7.2V205h8.6
			c5.5,0,10.8,2.2,14.7,6.1c3.9,3.9,6.1,9.2,6.1,14.7V246.6z M200.9,241.6h226.6v-15.8c0-4.2-1.7-8.2-4.6-11.1
			c-3-3-6.9-4.6-11.1-4.6h-3.6v18.3h-17.2V210h-25.4v18.3h-17.2V210h-25.4v18.3h-17.2V210h-25.4v18.3h-17.2V210h-25.7v18.3h-17.2
			V210h-3.6c-4.2,0-8.2,1.7-11.1,4.6c-2.9,2.9-4.6,7-4.6,11.1V241.6z"/>
	</g>
	<g>
		<path class="st1" d="M438.7,563c-29.3,0-56.9-13.2-75.5-36.4H216.4c-8.8,0-17.1-3.4-23.3-9.6c-6.2-6.2-9.6-14.5-9.6-23.3V225.8
			c0-8.8,3.4-17.1,9.6-23.3c6.2-6.2,14.5-9.6,23.3-9.6h3.6v-18.3l17.2,0v18.3h25.7v-18.3H280v18.3h25.4v-18.3h17.2v18.3h25.4v-18.3
			h17.2v18.3h25.4v-18.3h17.2v18.3h3.6c8.8,0,17.1,3.4,23.3,9.6c6.2,6.2,9.6,14.5,9.6,23.3v143.7c32.3,1.8,61.3,19.4,77.8,47.4
			c16.9,28.7,18,63.5,2.9,93.2c-15.1,29.7-43.9,49.3-77,52.5C444.9,562.8,441.8,563,438.7,563z M216.4,197.9
			c-7.5,0-14.5,2.9-19.8,8.2c-5.3,5.3-8.2,12.3-8.2,19.8v267.9c0,7.5,2.9,14.5,8.2,19.8c5.3,5.3,12.3,8.2,19.8,8.2h149.3l0.8,1
			c19.4,24.9,49.8,38,81.2,35c31.4-3,58.7-21.6,73.1-49.8c14.3-28.1,13.3-61.2-2.8-88.4c-16.1-27.2-44.5-44-76.1-45l-2.4-0.1V225.8
			c0-7.5-2.9-14.5-8.2-19.8c-5.3-5.3-12.3-8.2-19.8-8.2h-8.6v-18.3h-7.2v18.3h-35.4v-18.3h-7.2v18.3h-35.4v-18.3h-7.2v18.3H275
			v-18.3h-7.2v18.3h-35.7v-18.3l-7.2,0v18.3H216.4z M438.6,551C438.6,551,438.5,551,438.6,551c-22.7,0-44-8.9-60-24.9
			c-16-16-24.8-37.3-24.7-60c0-22.6,8.9-43.9,25-59.9c16-15.9,37.2-24.7,59.7-24.7c0.1,0,0.2,0,0.3,0c22.6,0,43.9,8.9,59.8,24.8
			c16,16,24.8,37.2,24.8,59.8l0,2.5h-0.3c-0.6,21.7-9.4,42-24.8,57.4C482.5,542.2,461.2,551,438.6,551z M438.6,386.6
			c-21.2,0-41.2,8.2-56.2,23.2c-15.1,15-23.4,35-23.5,56.3c0,21.3,8.2,41.3,23.3,56.4c15,15.1,35.1,23.4,56.4,23.4c0,0,0.1,0,0.1,0
			c21.3,0,41.3-8.3,56.3-23.3c15.1-15.1,23.4-35.1,23.4-56.4v-2.5h0.2c-0.7-20.3-8.9-39.4-23.3-53.8c-15-15-35-23.3-56.3-23.4
			C438.8,386.6,438.7,386.6,438.6,386.6z M360.6,514.5l-144.3,0c-5.5,0-10.8-2.2-14.7-6.1c-3.9-3.9-6.1-9.2-6.1-14.7V253.8H432
			v120.9l-2.3,0.2c-17.1,1.6-33.3,8-46.9,18.4c-13.6,10.4-24,24.4-30.1,40.4l-0.6,1.6h-35.8v7.2h33.6l-0.7,3.1
			c-1.6,6.8-2.4,13.8-2.4,20.7c0.1,15.5,4.1,30.9,11.8,44.4L360.6,514.5z M200.6,258.8v234.9c0,4.2,1.7,8.2,4.6,11.1
			c3,3,6.9,4.6,11.1,4.6l135.8,0c-6.8-13.3-10.4-28.2-10.4-43.2c0-6.3,0.7-12.6,1.9-18.8h-32.3v-17.2h37.3
			c6.5-16.2,17.2-30.4,31.2-41c13.8-10.5,30-17.1,47.2-19.2V258.8H200.6z M432.4,246.6H195.9v-20.8c0-5.5,2.2-10.8,6.1-14.7
			c3.9-3.9,9.2-6.1,14.7-6.1h8.6v18.3h7.2V205h35.7v18.3h7.2V205h35.4v18.3h7.2V205h35.4v18.3h7.2V205h35.4v18.3h7.2V205h8.6
			c5.5,0,10.8,2.2,14.7,6.1c3.9,3.9,6.1,9.2,6.1,14.7V246.6z M200.9,241.6h226.6v-15.8c0-4.2-1.7-8.2-4.6-11.1
			c-3-3-6.9-4.6-11.1-4.6h-3.6v18.3h-17.2V210h-25.4v18.3h-17.2V210h-25.4v18.3h-17.2V210h-25.4v18.3h-17.2V210h-25.7v18.3h-17.2
			V210h-3.6c-4.2,0-8.2,1.7-11.1,4.6c-2.9,2.9-4.6,7-4.6,11.1V241.6z"/>
		<path class="st1" d="M438.7,565.5c-29.9,0-57.7-13.2-76.7-36.4H216.4c-9.5,0-18.4-3.7-25.1-10.4c-6.7-6.7-10.4-15.6-10.4-25.1
			V225.8c0-9.5,3.7-18.4,10.4-25.1c6.7-6.7,15.6-10.4,25.1-10.4h1.1v-18.3l22.2,0v18.3h20.7v-18.3h22.2v18.3H303v-18.3h22.2v18.3
			h20.4v-18.3h22.2v18.3h20.4v-18.3h22.2v18.3h1.1c9.5,0,18.4,3.7,25.1,10.4c6.7,6.7,10.4,15.6,10.4,25.1v141.4
			c32.1,2.6,61,20.6,77.4,48.4c17.4,29.4,18.5,65.1,3,95.6c-15.5,30.4-45,50.6-79,53.8C445.1,565.3,441.9,565.5,438.7,565.5z
			 M216.4,524.1h148.1l0.8,0.9c18,22.5,44.8,35.4,73.5,35.4c2.6,0,5.2-0.1,7.7-0.3c-2.6,0.2-5.2,0.3-7.7,0.3
			c-29,0-56.2-13.2-74.3-36.4H216.4z M216.4,200.4c-6.8,0-13.2,2.6-18,7.5c-4.8,4.8-7.5,11.2-7.5,18v267.9c0,6.8,2.6,13.2,7.5,18
			c4.8,4.8,11.2,7.4,18,7.4h150.5l1.5,1.9c18.9,24.2,48.4,36.9,79,34c30.6-2.9,57.1-21,71.1-48.4c13.9-27.4,12.9-59.5-2.7-85.9
			c-15.6-26.4-43.3-42.8-74-43.8l-4.8-0.2v-151c0-6.8-2.6-13.2-7.5-18c-4.8-4.8-11.2-7.4-18-7.4h-11.1v-18.3h-2.2v18.3h-40.4v-18.3
			h-2.2v18.3h-40.4v-18.3H313v18.3h-40.4v-18.3h-2.2v18.3h-40.7v-18.3l-2.2,0v18.3H216.4z M533.2,466.5c-0.1,14.5-3.5,29-10.3,42.4
			c-6.5,12.8-15.6,23.7-26.6,32.1c10.9-8.4,20.1-19.3,26.6-32.1C529.7,495.5,533.2,481,533.2,466.5z M185.9,493.7
			c0,5,1.2,9.8,3.5,14.2C187.1,503.5,185.9,498.7,185.9,493.7z M518.4,415.6c0.6,0.9,1.1,1.7,1.6,2.6c5.6,9.5,9.4,19.7,11.5,30.1
			c-2-10.4-5.9-20.6-11.5-30.1C519.5,417.3,519,416.4,518.4,415.6z M441.9,371.9c0.8,0,1.5,0.1,2.3,0.1L441.9,371.9V225.8V371.9z
			 M441.9,225.6c0,0.1,0,0.1,0,0.2C441.9,225.7,441.9,225.7,441.9,225.6z M441.5,221.2C441.5,221.2,441.5,221.2,441.5,221.2
			C441.5,221.2,441.5,221.2,441.5,221.2z M431.9,203.3c0.4,0.3,0.7,0.7,1.1,1c4.6,4.6,7.6,10.5,8.6,16.9c-1-6.4-3.9-12.3-8.6-16.9
			C432.6,203.9,432.3,203.6,431.9,203.3z M405.4,195.4v-18.3V195.4z M362.7,195.4v-18.3V195.4z M320.1,195.4v-18.3V195.4z
			 M277.5,195.4v-18.3V195.4z M234.6,195.4v-18.3V195.4z M222.5,177.1h6.1H222.5L222.5,177.1z M438.6,553.5L438.6,553.5
			c-23.4,0-45.3-9.1-61.7-25.6c-16.5-16.5-25.5-38.4-25.4-61.7c0-23.3,9.2-45.2,25.7-61.6c16.5-16.4,38.3-25.4,61.5-25.4h0.3
			c23.3,0,45.2,9.1,61.6,25.6c16.5,16.5,25.5,38.3,25.6,61.6l0,5h-0.4c-1.2,21.4-10.2,41.5-25.4,56.7
			C483.8,544.4,461.9,553.5,438.6,553.5z M356.4,466.1C356.4,466.1,356.4,466.1,356.4,466.1c0,22,8.5,42.7,24,58.2
			c15.5,15.6,36.1,24.1,58.1,24.2l0.1,2.5v-2.5c13,0,25.5-3,36.8-8.6c-11.3,5.6-23.8,8.6-36.8,8.6c-22.1,0-42.7-8.6-58.2-24.2
			C364.9,508.8,356.4,488.1,356.4,466.1C356.4,466.1,356.4,466.1,356.4,466.1z M438.6,389.1c-20.5,0-39.9,8-54.4,22.5
			c-14.6,14.6-22.7,33.9-22.7,54.6c0,20.6,8,40,22.5,54.7c14.6,14.6,34,22.7,54.6,22.7c20.7,0,40.1-8,54.6-22.6
			c14.6-14.6,22.6-34,22.6-54.6v-5h0.1c-1.2-18.7-9.1-36.2-22.5-49.5c-14.6-14.6-33.9-22.6-54.6-22.6H438.6z M520.8,466.3
			c0,0.8,0,1.5,0,2.3L520.8,466.3h0.2H520.8z M498.8,410.2c13.7,14.6,21.5,33.5,22.1,53.5l0,0.1
			C520.4,443.7,512.6,424.9,498.8,410.2z M438.6,384.1c-21.9,0-42.5,8.5-58,23.9c-9.6,9.5-16.5,21-20.5,33.5
			c3.9-12.5,10.9-24,20.5-33.5C396.1,392.6,416.7,384.1,438.6,384.1L438.6,384.1z M438.8,384.1c17.3,0,33.8,5.4,47.6,15.2
			C472.6,389.5,456.1,384.1,438.8,384.1L438.8,384.1z M364.9,517l-148.5,0c-6.2,0-12.1-2.4-16.4-6.8c-4.3-4.3-6.8-10.3-6.8-16.5
			V251.3h241.3V377l-4.5,0.4c-16.6,1.6-32.4,7.8-45.6,17.9c-13.3,10.1-23.4,23.7-29.3,39.3l-1.2,3.2h-35v2.2H353l-1.4,6.1
			c-1.5,6.6-2.3,13.4-2.4,20.2c0.1,15.1,4,30,11.5,43.2L364.9,517z M356.2,512h0.1c-0.9-1.6-1.8-3.2-2.6-4.9
			c0.2,0.4,0.4,0.8,0.6,1.2L356.2,512z M205.3,508.2c3.1,2.4,6.9,3.7,10.9,3.7C212.2,511.9,208.4,510.6,205.3,508.2z M203.1,261.3
			v232.4c0,3.5,1.4,6.9,3.9,9.4c2.5,2.5,5.8,3.9,9.4,3.9l131.8,0c-5.8-12.7-8.9-26.7-9-40.6c0-5.5,0.5-10.9,1.4-16.3h-31.8v-22.2
			h38.1c6.7-16,17.5-29.9,31.3-40.5c13.5-10.3,29.4-17,46.2-19.4V261.3H203.1z M198.1,493.7c0,3.4,1,6.7,2.7,9.6
			C199.1,500.4,198.1,497.1,198.1,493.7z M344.2,466.4C344.2,466.4,344.2,466.4,344.2,466.4C344.2,466.4,344.2,466.4,344.2,466.4z
			 M344.2,466.4C344.2,466.4,344.2,466.4,344.2,466.4C344.2,466.4,344.2,466.4,344.2,466.4z M344.2,466.3
			C344.2,466.3,344.2,466.3,344.2,466.3C344.2,466.3,344.2,466.3,344.2,466.3C344.2,466.3,344.2,466.3,344.2,466.3z M344.2,466.2
			C344.2,466.2,344.2,466.2,344.2,466.2C344.2,466.2,344.2,466.2,344.2,466.2z M344.2,466.2C344.2,466.2,344.2,466.2,344.2,466.2
			C344.2,466.2,344.2,466.2,344.2,466.2z M344.2,466.1C344.2,466.1,344.2,466.1,344.2,466.1C344.2,466.1,344.2,466.1,344.2,466.1z
			 M346.7,445l-0.5,2.7C346.3,446.8,346.5,445.9,346.7,445L346.7,445z M313.8,445v-12.2l36.5,0c0.8-2,1.6-4,2.5-6
			c-0.7,1.4-1.3,2.9-1.9,4.4l-0.6,1.6h-36.5V445z M429.5,256.3v116.1l-1.9,0.2c0.6-0.1,1.3-0.1,1.9-0.2V256.3z M434.9,249.1H193.4
			v-23.3c0-6.1,2.5-12.1,6.8-16.5c4.3-4.3,10.3-6.8,16.5-6.8h11.1v18.3h2.2v-18.3h40.7v18.3h2.2v-18.3h40.4v18.3h2.2v-18.3h40.4
			v18.3h2.2v-18.3h40.4v18.3h2.2v-18.3h11.1c6.2,0,12.1,2.4,16.4,6.8c4.3,4.3,6.8,10.3,6.8,16.5V249.1z M198.4,244.1h231.6v-18.3
			v18.3H198.4z M203.4,239.1h221.6v-13.3c0-3.5-1.4-6.9-3.9-9.4c-2.5-2.5-5.8-3.9-9.4-3.9h-1.1v18.3h-22.2v-18.3H368v18.3h-22.2
			v-18.3h-20.4v18.3h-22.2v-18.3h-20.4v18.3h-22.2v-18.3h-20.7v18.3h-22.2v-18.3h-1.1c-3.5,0-6.9,1.4-9.4,3.9
			c-2.5,2.5-3.9,5.9-3.9,9.4V239.1z M393.4,225.8v-18.3V225.8z M350.8,225.8v-18.3V225.8z M308.2,225.8v-18.3V225.8z M265.6,225.8
			v-18.3V225.8z M222.7,225.8v-18.3V225.8z M428.8,219.5c0.7,2,1.1,4.1,1.1,6.3C429.9,223.6,429.6,221.5,428.8,219.5z M428.8,219.5
			C428.8,219.5,428.8,219.5,428.8,219.5C428.8,219.5,428.8,219.5,428.8,219.5z M411.7,207.5c3.6,0,7.1,1,10,3
			C418.7,208.6,415.3,207.5,411.7,207.5z"/>
	</g>
</g>
<g>
	<g>
		<path class="st1" d="M289.7,280.6h-67c-3.4,0-6.1,2.7-6.1,6.1v67c0,1.6,0.6,3.2,1.8,4.3s2.7,1.8,4.3,1.8h67c1.6,0,3.2-0.6,4.3-1.8
			c1.1-1.1,1.8-2.7,1.8-4.3v-67c0-1.6-0.6-3.2-1.8-4.3S291.3,280.6,289.7,280.6z M283.6,347.6h-54.8v-54.8h54.8V347.6z"/>
		<path class="st1" d="M289.7,362.2h-67c-2.3,0-4.5-0.9-6.1-2.5c-1.6-1.6-2.5-3.8-2.5-6.1v-67c0-4.7,3.9-8.6,8.6-8.6h67
			c2.3,0,4.5,0.9,6.1,2.5c1.6,1.6,2.5,3.8,2.5,6.1v67c0,2.3-0.9,4.5-2.5,6.1S292,362.2,289.7,362.2z M222.7,283.1
			c-2,0-3.6,1.6-3.6,3.6v67c0,1,0.4,1.9,1.1,2.5c0.7,0.7,1.6,1.1,2.5,1.1h67c0.9,0,1.9-0.4,2.5-1.1c0.7-0.7,1.1-1.6,1.1-2.5v-67
			c0-0.9-0.4-1.9-1.1-2.5c-0.7-0.7-1.6-1.1-2.5-1.1H222.7z M286.1,350.1h-59.8v-59.8h59.8V350.1z M231.3,345.1h49.8v-49.8h-49.8
			V345.1z"/>
	</g>
	<g>
		<path class="st1" d="M289.7,362.2h-67c-2.3,0-4.5-0.9-6.1-2.5c-1.6-1.6-2.5-3.8-2.5-6.1v-67c0-4.7,3.9-8.6,8.6-8.6h67
			c2.3,0,4.5,0.9,6.1,2.5c1.6,1.6,2.5,3.8,2.5,6.1v67c0,2.3-0.9,4.5-2.5,6.1S292,362.2,289.7,362.2z M222.7,283.1
			c-2,0-3.6,1.6-3.6,3.6v67c0,1,0.4,1.9,1.1,2.5c0.7,0.7,1.6,1.1,2.5,1.1h67c0.9,0,1.9-0.4,2.5-1.1c0.7-0.7,1.1-1.6,1.1-2.5v-67
			c0-0.9-0.4-1.9-1.1-2.5c-0.7-0.7-1.6-1.1-2.5-1.1H222.7z M286.1,350.1h-59.8v-59.8h59.8V350.1z M231.3,345.1h49.8v-49.8h-49.8
			V345.1z"/>
		<path class="st1" d="M289.7,364.7h-67c-2.9,0-5.8-1.2-7.8-3.2c-2.1-2.1-3.2-4.9-3.2-7.8v-67c0-6.1,5-11.1,11.1-11.1h67
			c3,0,5.7,1.2,7.8,3.2c2.1,2.1,3.2,4.9,3.2,7.8v67c0,3-1.2,5.7-3.2,7.8C295.4,363.6,292.6,364.7,289.7,364.7z M219.8,359
			c0.9,0.5,1.9,0.7,2.9,0.7h67c1.5,0,2.9-0.5,4-1.5c-1.1,1-2.6,1.5-4,1.5h-67C221.7,359.7,220.7,359.5,219.8,359z M222.7,285.6
			c-0.6,0-1.1,0.5-1.1,1.1v67c0,0.3,0.1,0.6,0.3,0.8c0.2,0.2,0.5,0.3,0.8,0.3h67c0.3,0,0.6-0.1,0.8-0.3c0.2-0.2,0.3-0.5,0.3-0.8v-67
			c0-0.3-0.1-0.6-0.3-0.8c-0.2-0.2-0.5-0.3-0.8-0.3H222.7z M216.6,353.7C216.6,353.7,216.6,353.7,216.6,353.7
			C216.6,353.7,216.6,353.7,216.6,353.7z M216.6,353.7C216.6,353.7,216.6,353.7,216.6,353.7C216.6,353.7,216.6,353.7,216.6,353.7z
			 M295.8,286.7v67V286.7z M289.7,280.6c1.5,0,3,0.6,4.2,1.7C292.7,281.2,291.2,280.6,289.7,280.6z M288.6,352.6h-64.8v-64.8h64.8
			V352.6z M228.8,347.6h54.8v-54.8v54.8H228.8z M233.8,342.6h44.8v-44.8h-44.8V342.6z"/>
	</g>
</g>
<g>
	<g>
		<path class="st1" d="M289.7,384.1h-67c-3.4,0-6.1,2.7-6.1,6.1v67c0,1.6,0.6,3.2,1.8,4.3c1.1,1.1,2.7,1.8,4.3,1.8h67
			c1.6,0,3.2-0.6,4.3-1.8c1.1-1.1,1.8-2.7,1.8-4.3v-67c0-1.6-0.6-3.2-1.8-4.3C292.8,384.7,291.3,384.1,289.7,384.1z M283.6,451.1
			h-54.8v-54.8h54.8V451.1z"/>
		<path class="st1" d="M289.7,465.7h-67c-2.3,0-4.5-0.9-6.1-2.5c-1.6-1.6-2.5-3.8-2.5-6.1v-67c0-4.7,3.9-8.6,8.6-8.6h67
			c2.3,0,4.5,0.9,6.1,2.5s2.5,3.8,2.5,6.1v67c0,2.3-0.9,4.5-2.5,6.1C294.1,464.9,292,465.7,289.7,465.7z M222.7,386.6
			c-2,0-3.6,1.6-3.6,3.6v67c0,0.9,0.4,1.9,1.1,2.5c0.7,0.7,1.6,1,2.5,1h67c1,0,1.9-0.4,2.5-1c0.7-0.7,1.1-1.6,1.1-2.5v-67
			c0-0.9-0.4-1.9-1.1-2.5s-1.6-1.1-2.5-1.1H222.7z M286.1,453.6h-59.8v-59.8h59.8V453.6z M231.3,448.6h49.8v-49.8h-49.8V448.6z"/>
	</g>
	<g>
		<path class="st1" d="M289.7,465.7h-67c-2.3,0-4.5-0.9-6.1-2.5c-1.6-1.6-2.5-3.8-2.5-6.1v-67c0-4.7,3.9-8.6,8.6-8.6h67
			c2.3,0,4.5,0.9,6.1,2.5s2.5,3.8,2.5,6.1v67c0,2.3-0.9,4.5-2.5,6.1C294.1,464.9,292,465.7,289.7,465.7z M222.7,386.6
			c-2,0-3.6,1.6-3.6,3.6v67c0,0.9,0.4,1.9,1.1,2.5c0.7,0.7,1.6,1,2.5,1h67c1,0,1.9-0.4,2.5-1c0.7-0.7,1.1-1.6,1.1-2.5v-67
			c0-0.9-0.4-1.9-1.1-2.5s-1.6-1.1-2.5-1.1H222.7z M286.1,453.6h-59.8v-59.8h59.8V453.6z M231.3,448.6h49.8v-49.8h-49.8V448.6z"/>
		<path class="st1" d="M289.7,468.2h-67c-2.9,0-5.8-1.2-7.8-3.2c-2.1-2.1-3.2-4.9-3.2-7.8v-67c0-6.1,5-11.1,11.1-11.1h67
			c3,0,5.7,1.2,7.8,3.2c2.1,2.1,3.2,4.9,3.2,7.8v67c0,2.9-1.2,5.8-3.2,7.8C295.4,467.1,292.6,468.2,289.7,468.2z M222.7,463.2
			C222.7,463.2,222.7,463.2,222.7,463.2h67c1.4,0,2.8-0.5,3.9-1.4c-1.1,0.9-2.4,1.4-3.9,1.4H222.7
			C222.7,463.2,222.7,463.2,222.7,463.2z M219.8,462.5c0.9,0.5,1.8,0.7,2.8,0.7C221.7,463.2,220.7,463,219.8,462.5z M222.7,389.1
			c-0.6,0-1.1,0.5-1.1,1.1v67c0,0.3,0.1,0.6,0.3,0.8c0.2,0.2,0.5,0.3,0.8,0.3h67c0.3,0,0.6-0.1,0.8-0.3c0.2-0.2,0.3-0.5,0.3-0.8v-67
			c0-0.3-0.1-0.6-0.3-0.8s-0.5-0.3-0.8-0.3H222.7z M216.6,457.2C216.6,457.2,216.6,457.2,216.6,457.2
			C216.6,457.2,216.6,457.2,216.6,457.2z M216.6,457.2C216.6,457.2,216.6,457.2,216.6,457.2C216.6,457.2,216.6,457.2,216.6,457.2z
			 M295.8,390.2v67V390.2z M294.2,386.2c1,1.1,1.5,2.6,1.5,4C295.8,388.7,295.2,387.3,294.2,386.2z M289.7,384.1
			c1.5,0,2.9,0.6,4,1.5C292.6,384.6,291.2,384.1,289.7,384.1z M288.6,456.1h-64.8v-64.8h64.8V456.1z M228.8,451.1h54.8v-54.8v54.8
			H228.8z M233.8,446.1h44.8v-44.8h-44.8V446.1z"/>
	</g>
</g>
<g>
	<g>
		<path class="st1" d="M314,329.3h103.5v12.2H314V329.3z"/>
		<path class="st1" d="M420,344H311.5v-17.2H420V344z M316.5,339H415v-7.2h-98.5V339z"/>
	</g>
	<g>
		<path class="st1" d="M420,344H311.5v-17.2H420V344z M316.5,339H415v-7.2h-98.5V339z"/>
		<path class="st1" d="M422.5,346.5H309v-22.2h113.5V346.5z M314,341.5h103.5v-12.2v12.2H314z M319,336.5h93.5v-2.2H319V336.5z"/>
	</g>
</g>
</svg>
