<?xml version="1.0" encoding="utf-8"?>
<!-- Generator: Adobe Illustrator 26.1.0, SVG Export Plug-In . SVG Version: 6.00 Build 0)  -->
<svg version="1.1" id="Layer_1" xmlns="http://www.w3.org/2000/svg" xmlns:xlink="http://www.w3.org/1999/xlink" x="0px" y="0px"
	 viewBox="0 0 700 700" style="enable-background:new 0 0 700 700;" xml:space="preserve">
<style type="text/css">
	.st0{fill-rule:evenodd;clip-rule:evenodd;fill:#2081E2;}
	.st1{fill:#2081E2;}
</style>
<g>
	<g>
		<g>
			<path class="st1" d="M416.1,362.3c0-5.7-2.9-11-7.7-14.1l-41.6-27v-22.4l8.3-19.3V229c0-11.4-4.5-22.3-12.6-30.3
				c-8-8-18.9-12.6-30.3-12.6h-19.5c-10.3,0-20.1,4.1-27.4,11.4c-7.3,7.3-11.3,17.1-11.3,27.4v11.8l-14.3,33.6l14.3,4.8v11.2
				c0,5.9,2.4,11.6,6.6,15.8c4.2,4.2,9.9,6.6,15.8,6.6h12.2v13l-41.8,26.4c-4.7,3.1-7.5,8.5-7.4,14.1v34.9l156.8,0L416.1,362.3z
				 M326.5,386h-48.9c42.1-43.8,74.8-53.9,82.8-56l1.5,1c-13.7,7.8-41,24.1-57.8,40.8c-1.1,1.1-1.7,2.5-1.7,4c0,1.5,0.6,2.9,1.7,4
				c1.1,1.1,2.5,1.6,4,1.6c1.5,0,2.9-0.6,4-1.6c18-18.1,50.4-36.5,60.3-41.7l4.8,3.1C365,349.8,339.9,368.7,326.5,386L326.5,386z
				 M312.7,197.2h19.8c9.3-0.1,18.2,4.1,24.2,11.2c-4.5,1.6-9,3-13.7,4l2.3-2.6c2.1-2.3,1.9-5.9-0.4-7.9c-2.3-2.1-5.9-1.9-7.9,0.4
				l-11.2,12.6c-4.4,0.2-8.8,0.2-13.2-0.3l3.7-2.5h0c2.5-1.8,3.1-5.3,1.2-7.8c-1.8-2.5-5.3-3.1-7.8-1.2l-12.2,8.5
				c-2.4-0.8-4.8-1.8-7.1-2.9C295.6,201.4,303.9,197.2,312.7,197.2L312.7,197.2z M272.8,357.5l46.6-30.4v-19.7
				c9.6-1.7,18.1-7.1,23.8-15.1c1.1-1.2,1.6-2.8,1.4-4.4c-0.2-1.6-1-3-2.3-3.9c-1.3-0.9-2.9-1.2-4.5-0.9c-1.6,0.4-2.9,1.4-3.7,2.8
				c-4.7,6.7-12.2,10.8-20.3,11.2h-17.8c-6.2,0-11.2-5-11.2-11.2v-19l-10.2-3.4l10.4-24.4l0-14.5c0-2,0.3-4,0.7-5.9
				c3,1.5,6.2,2.8,9.4,3.8l8.8,10.4c1.1,1.3,2.6,2,4.3,2c1.3,0,2.6-0.5,3.6-1.3c2.2-1.9,2.6-5.3,0.8-7.6c2.9,0.3,5.7,0.4,8.6,0.4
				c2.5,0,5.1,0,7.8-0.3l9.2,6.8c1,0.7,2.2,1.1,3.4,1.1c1.8,0,3.4-0.9,4.5-2.3c1.8-2.5,1.3-5.9-1.2-7.8h-0.3
				c6-1.4,11.9-3.1,17.6-5.3c1.2,3.3,1.8,6.9,1.8,10.4v48.2l-8.3,19.3v23c-11.9,3.1-44.8,15.1-85.6,57.6v-15
				C270.3,360.4,271.3,358.6,272.8,357.5L272.8,357.5z M404.9,386h-63.6c14.1-14.2,29.5-27.1,46.1-38.4l15.1,9.9
				c1.6,1,2.6,2.8,2.6,4.7L404.9,386z"/>
			<path class="st1" d="M258.3,398.2v-35.9c-0.1-6,2.9-11.6,7.9-14.9l41.3-26.1v-11.5h-11.2c-6.2,0-12.1-2.4-16.5-6.9
				c-4.4-4.4-6.9-10.3-6.9-16.5v-10.5l-14.6-4.9l14.6-34.4v-11.6c0-10.6,4.1-20.6,11.6-28.1c7.5-7.5,17.5-11.6,28.1-11.6h19.5
				c11.7,0,22.7,4.6,31,12.9c8.3,8.3,12.9,19.3,12.9,31v50.6l-8.3,19.3v21.6l41.1,26.7c5.1,3.3,8.1,8.9,8.1,15l0,35.9L258.3,398.2z
				 M261,269.7l13.9,4.7v11.9c0,5.7,2.2,11.1,6.3,15.1c4,4,9.4,6.3,15.1,6.3h13.2v14.6L267.2,349c-4.4,3-7,7.9-7,13.3v34l154.8,0
				l0-33.9c0-5.4-2.7-10.3-7.2-13.3l-42-27.3v-23.1l8.3-19.3V229c0-11.2-4.4-21.7-12.3-29.6c-7.9-7.9-18.4-12.3-29.6-12.3h-19.5
				c-10.1,0-19.6,3.9-26.7,11.1c-7.1,7.1-11.1,16.6-11.1,26.7v12l-0.1,0.2L261,269.7z M326.9,387h-51.8l1.6-1.7
				c18-18.7,36.3-33.4,54.4-43.8c13.9-7.9,24.1-11.2,28.9-12.5l0.4-0.1l3.2,2.2l-1.4,0.8c-17.8,10.1-42.2,25.4-57.6,40.6
				c-0.9,0.9-1.4,2-1.4,3.3c0,1.2,0.5,2.4,1.4,3.3c0.9,0.9,2,1.3,3.3,1.3c1.2,0,2.4-0.5,3.3-1.3c19.8-19.9,56.4-39.7,60.5-41.9
				l0.5-0.3l6.5,4.3l-1.2,0.8c-23.4,17-40.9,32.4-50.4,44.7L326.9,387z M279.9,385H326c9.5-12.1,26.5-27.2,49.3-43.8l-3.1-2
				c-6,3.2-40.6,22.2-59.5,41.3c-1.2,1.2-2.9,1.9-4.7,1.9c0,0,0,0-0.1,0c-1.7,0-3.4-0.7-4.6-1.9c-1.2-1.2-2-2.9-2-4.7
				c0-1.8,0.7-3.4,2-4.7c14.9-14.8,38.3-29.6,56-39.8C325.9,340.5,291.9,372.7,279.9,385z M405.8,387h-66.9l1.7-1.7
				c14.1-14.2,29.7-27.2,46.2-38.5l0.6-0.4l15.7,10.2c1.9,1.2,3,3.3,3,5.5L405.8,387z M343.7,385h60.2l0.2-22.9c0-1.6-0.8-3-2.1-3.9
				l-14.6-9.5C371.8,359.5,357.1,371.7,343.7,385z M269.3,379.7v-17.4c0-2.2,1.1-4.3,2.9-5.5l0,0l46.2-30.1v-20l0.8-0.1
				c9.4-1.7,17.6-6.9,23.2-14.7l0.1-0.1c0.9-1,1.3-2.3,1.2-3.6c-0.1-1.3-0.8-2.5-1.9-3.2c-1.1-0.8-2.4-1-3.7-0.7
				c-1.3,0.3-2.4,1.1-3,2.3l-0.1,0.1c-4.9,7-12.6,11.2-21.1,11.6l-17.8,0c-6.7,0-12.2-5.5-12.2-12.2v-18.3l-10.5-3.5l10.8-25.2
				l0-14.2c0-2.1,0.3-4.1,0.7-6.1l0.3-1.3l1.2,0.6c3,1.5,6.1,2.7,9.3,3.7l0.3,0.1l9,10.6c0.9,1.1,2.2,1.7,3.6,1.7
				c1.1,0,2.1-0.4,2.9-1.1c1.8-1.6,2.1-4.3,0.7-6.2l-1.4-1.8l2.3,0.2c2.8,0.3,5.7,0.4,8.5,0.4c2.5,0,5,0,7.7-0.3l0.4,0l9.6,7.1
				c0.8,0.6,1.7,0.9,2.8,0.9c1.5,0,2.8-0.7,3.7-1.9c1.4-1.9,1.1-4.6-0.7-6.2h-8.9l8.7-2c5.9-1.3,11.8-3.1,17.5-5.2l1-0.4l0.3,1
				c1.2,3.5,1.8,7.1,1.8,10.7v48.4l-8.3,19.3v23.6l-0.7,0.2c-12.1,3.2-44.6,15.1-85.2,57.4L269.3,379.7z M273.4,358.4
				c-1.3,0.9-2,2.3-2,3.9v12.5c39.3-40.3,71-52.5,83.6-55.9v-22.5l8.3-19.3v-48c0-3.1-0.5-6.2-1.4-9.1c-4.8,1.8-9.8,3.3-14.8,4.5
				c1.7,2.3,1.8,5.5,0.1,7.9c-1.2,1.7-3.2,2.7-5.3,2.7c-1.4,0-2.8-0.4-4-1.3l-8.9-6.6c-2.6,0.3-5.1,0.3-7.5,0.3
				c-2.3,0-4.6-0.1-6.9-0.3c0.9,2.5,0.2,5.4-1.9,7.2c-1.2,1-2.7,1.5-4.2,1.5c-2,0-3.8-0.9-5.1-2.4l-8.7-10.1
				c-2.8-0.9-5.5-1.9-8.1-3.2c-0.3,1.5-0.4,3-0.4,4.5l0,14.6L276.1,263l9.8,3.2V286c0,5.6,4.6,10.2,10.2,10.2h17.8
				c7.8-0.4,14.9-4.3,19.5-10.7c0.9-1.6,2.5-2.8,4.3-3.2c1.8-0.4,3.8,0,5.3,1.1c1.5,1.1,2.5,2.8,2.7,4.7c0.2,1.8-0.4,3.7-1.6,5.1
				c-5.7,7.9-14,13.3-23.6,15.3v19.4L273.4,358.4z M321,216.1c-2.8,0-5.7-0.1-8.5-0.4l-2.7-0.3l6-4.1c2-1.5,2.4-4.4,1-6.4
				c-0.7-1-1.8-1.7-3-1.8c-1.2-0.2-2.4,0.1-3.4,0.8l-12.6,8.8l-0.5-0.2c-2.4-0.8-4.9-1.8-7.2-3l-1.1-0.5l0.7-1
				c5.3-7.4,13.9-11.8,23-11.8h19.8c9.6-0.1,18.8,4.2,25,11.6l0.9,1.1l-1.3,0.5c-4.5,1.6-9.1,3-13.8,4.1l-3.1,0.7l4.4-4.9
				c1.7-1.9,1.5-4.8-0.3-6.5c-1.9-1.7-4.8-1.5-6.5,0.3l-11.5,12.9l-0.4,0C324.2,216,322.6,216.1,321,216.1z M315.5,213.9
				c3.3,0.2,6.6,0.2,9.9,0.1l10.9-12.3c1.4-1.5,3.3-2.3,5.2-2.2c-2.9-0.9-5.9-1.3-9-1.3h-19.8c-8.1,0-15.7,3.8-20.7,10.1
				c1.8,0.8,3.5,1.5,5.4,2.2l11.7-8.2c1.4-1,3.2-1.4,4.9-1.2c1.7,0.3,3.3,1.2,4.3,2.6c1,1.4,1.5,3.2,1.2,4.9
				c-0.3,1.7-1.2,3.3-2.6,4.3L315.5,213.9z M345.3,200.9c0.1,0.1,0.2,0.1,0.3,0.2c2.7,2.4,2.9,6.6,0.5,9.3l-0.1,0.2
				c3-0.8,6.1-1.7,9-2.7C352.2,204.9,348.9,202.6,345.3,200.9z"/>
		</g>
		<g>
			<path class="st1" d="M257.8,398.7v-36.4c-0.1-6.2,3-11.9,8.1-15.4l41.1-26v-10.7h-10.7c-6.4,0-12.4-2.5-16.9-7
				c-4.5-4.5-7-10.5-7-16.9v-10.1l-14.8-5l14.8-34.8v-11.5c0-10.8,4.2-20.9,11.8-28.5c7.6-7.6,17.7-11.8,28.5-11.8h19.5
				c11.9,0,23,4.6,31.4,13c8.4,8.4,13,19.5,13,31.4v50.7l-8.3,19.3v21.3l40.9,26.5c5.2,3.4,8.4,9.1,8.4,15.4l0,36.4L257.8,398.7z
				 M261.7,269.4l13.8,4.6v12.3c0,5.6,2.2,10.8,6.1,14.8c3.9,3.9,9.2,6.1,14.8,6.1H310v15.4l-42.5,26.8c-4.3,2.9-6.8,7.7-6.7,12.8
				v33.5l153.8,0l0-33.4c0-5.2-2.6-10-7-12.9L365.3,322v-23.5l8.3-19.3V229c0-11-4.3-21.4-12.1-29.3c-7.8-7.8-18.2-12.1-29.3-12.1
				h-19.5c-10,0-19.3,3.9-26.3,10.9c-7,7-10.9,16.4-10.9,26.3V237L261.7,269.4z M327.2,387.5H274l2.4-2.5
				c18-18.7,36.3-33.5,54.5-43.9c13.9-8,24.2-11.3,29-12.5l0.6-0.2l4.1,2.7l-2.1,1.2c-17.8,10.1-42.2,25.4-57.5,40.5
				c-0.8,0.8-1.2,1.8-1.2,2.9c0,1.1,0.4,2.1,1.2,2.9c0.8,0.8,1.8,1.2,2.9,1.2c0,0,0,0,0,0c1.1,0,2.1-0.4,2.9-1.2
				c19.8-19.9,56.5-39.8,60.6-42l0.8-0.4l7.3,4.8l-1.8,1.3c-23.4,16.9-40.8,32.4-50.3,44.6L327.2,387.5z M281.1,384.5h44.7
				c9.5-12,26.3-26.9,48.7-43.3l-2.2-1.5c-6.7,3.6-40.5,22.3-59.1,41c-1.3,1.3-3.1,2.1-5,2.1c0,0,0,0-0.1,0c-1.9,0-3.6-0.7-5-2.1
				c-1.3-1.3-2.1-3.2-2.1-5c0-1.9,0.7-3.7,2.1-5c13.9-13.8,35.2-27.6,52.4-37.7C324.2,343.3,293.2,372.2,281.1,384.5z M406.3,387.5
				h-68.6l2.5-2.6c14.1-14.3,29.7-27.3,46.3-38.6l0.8-0.6l16,10.4c2,1.3,3.3,3.5,3.3,6L406.3,387.5z M344.9,384.5h58.4l0.2-22.4
				c0-1.4-0.7-2.7-1.9-3.4l-14.3-9.3C372.3,359.8,358,371.6,344.9,384.5z M268.8,380.9v-18.7c0-2.4,1.1-4.6,3.1-5.9l0,0l46-29.9
				v-20.2l1.2-0.2c9.3-1.7,17.4-6.8,22.8-14.5l0.1-0.1c0.8-0.9,1.2-2,1-3.2c-0.1-1.2-0.7-2.2-1.7-2.9c-1-0.7-2.2-0.9-3.3-0.7
				c-1.1,0.3-2.1,1-2.7,2l-0.1,0.1c-5,7.1-12.8,11.4-21.5,11.8l-17.8,0c-7,0-12.7-5.7-12.7-12.7v-18l-10.7-3.5l10.9-25.6l0-14.1
				c0-2.1,0.3-4.2,0.7-6.2l0.4-1.9l1.7,0.9c3,1.5,6,2.7,9.2,3.7l0.4,0.1l9.1,10.7c0.8,1,1.9,1.5,3.2,1.5c1,0,1.9-0.3,2.6-0.9
				c1.6-1.4,1.9-3.8,0.6-5.6l-2.1-2.7l3.4,0.4c2.8,0.3,5.6,0.4,8.5,0.4c2.5,0,5,0,7.6-0.3l0.6-0.1l9.7,7.2c0.7,0.5,1.6,0.8,2.4,0.8
				c1.3,0,2.5-0.6,3.3-1.7c1.2-1.7,1-4-0.5-5.4h-13.2l13.1-3c5.9-1.3,11.8-3.1,17.4-5.2l1.4-0.5l0.5,1.4c1.2,3.5,1.9,7.2,1.9,10.9
				v48.5l-8.3,19.3v23.9l-1.1,0.3c-12.1,3.2-44.5,15.1-84.9,57.2L268.8,380.9z M273.6,358.8c-1.1,0.8-1.8,2.1-1.8,3.4v11.3
				c38.6-39.3,69.8-51.5,82.6-55.1v-22.2l8.3-19.3v-47.9c0-2.9-0.4-5.7-1.2-8.5c-4.5,1.6-9.1,3-13.7,4.1c1.4,2.4,1.4,5.5-0.3,7.8
				c-1.3,1.8-3.4,2.9-5.7,2.9c-1.5,0-3-0.4-4.2-1.3l-8.8-6.5c-2.6,0.3-5,0.3-7.4,0.3c-2.1,0-4.1-0.1-6.2-0.2c0.6,2.5-0.2,5.3-2.3,7
				c-1.3,1.1-2.9,1.7-4.6,1.7c-2.1,0-4.1-0.9-5.5-2.6l-8.6-10c-2.5-0.8-5-1.8-7.4-2.9c-0.2,1.2-0.3,2.5-0.3,3.8l0,14.7l-9.9,23.2
				l9.7,3.2V286c0,5.3,4.4,9.7,9.7,9.7h17.8c7.6-0.4,14.6-4.2,19.1-10.5c1-1.7,2.6-3,4.6-3.4c2-0.5,4.1,0,5.7,1.1
				c1.7,1.2,2.7,3,2.9,5c0.2,2-0.4,4-1.7,5.5c-5.7,7.9-14,13.3-23.5,15.4V328L273.6,358.8z M321,216.6c-2.9,0-5.7-0.1-8.6-0.4
				l-4.1-0.4l7.1-4.9c0.9-0.6,1.4-1.6,1.6-2.6c0.2-1.1-0.1-2.2-0.7-3.1c-0.6-0.9-1.6-1.5-2.7-1.6c-1.1-0.2-2.2,0.1-3.1,0.7
				l-12.8,8.9l-0.7-0.2c-2.5-0.8-4.9-1.8-7.2-3l-1.6-0.8l1-1.4c5.4-7.5,14.2-12,23.4-12.1h19.8c9.8-0.1,19.1,4.2,25.4,11.7l1.4,1.6
				l-2,0.7c-4.5,1.6-9.2,3-13.8,4.1l-4.6,1.1l5.4-6.1c1.5-1.7,1.4-4.3-0.3-5.8c-0.8-0.7-1.9-1.1-3-1c-1.1,0.1-2.1,0.5-2.8,1.4
				l-11.6,13.1l-0.6,0C324.2,216.5,322.6,216.6,321,216.6z M332.5,198.7h-19.8C305,198.7,334.7,198.7,332.5,198.7z M347.3,202.5
				c1.3,2.2,4.5,6,6.8,5.2C352.1,205.6,349.8,203.9,347.3,202.5z"/>
			<path class="st1" d="M256.8,399.7v-37.4c-0.1-6.5,3.1-12.6,8.6-16.2l40.7-25.7v-9.2h-9.7c-6.6,0-12.9-2.6-17.6-7.3
				c-4.7-4.7-7.3-11-7.3-17.6v-9.4l-15.1-5.1l15.1-35.6v-11.3c0-11,4.3-21.4,12.1-29.2c7.8-7.8,18.2-12.1,29.2-12.1h19.5
				c12.1,0,23.5,4.7,32.1,13.3c8.6,8.6,13.3,20,13.3,32.1v50.9l-8.3,19.3v20.5l40.4,26.3c5.5,3.6,8.8,9.6,8.8,16.2l0,37.4
				L256.8,399.7z M259,270.6l14.5,4.9v10.8c0,6.1,2.4,11.9,6.7,16.2c4.3,4.3,10.1,6.7,16.2,6.7H308v12.3l-41.6,26.3
				c-4.8,3.2-7.7,8.7-7.6,14.5v35.5l157.8,0l0-35.4c0-5.9-2.9-11.3-7.9-14.5l-41.3-26.8v-22l8.3-19.3V229c0-11.6-4.5-22.5-12.7-30.7
				c-8.2-8.2-19.1-12.7-30.7-12.7h-19.5c-10.5,0-20.3,4.1-27.8,11.5c-7.4,7.4-11.5,17.3-11.5,27.8v11.7l-0.1,0.2L259,270.6z
				 M259.8,396.7v-34.5c-0.1-5.5,2.6-10.6,7.2-13.7l42-26.5v-13.8h-12.7c-5.8,0-11.3-2.3-15.5-6.4c-4.1-4.1-6.4-9.6-6.4-15.5v-11.6
				l-14.1-4.8l14.1-33.2v-11.9c0-10.2,4-19.8,11.2-27c7.2-7.2,16.8-11.2,27-11.2h19.5c11.3,0,22,4.4,30,12.4c8,8,12.4,18.6,12.4,30
				v50.3l-8.3,19.3v22.8l41.8,27.1c4.7,3,7.4,8.1,7.4,13.7l0,34.4L259.8,396.7z M263,268.8l13.4,4.5v13c0,5.3,2.1,10.3,5.8,14.1
				c3.8,3.8,8.8,5.8,14.1,5.8H311v16.9L268,350.3c-4,2.7-6.3,7.1-6.3,12v32.5l151.8,0l0-32.4c0-4.9-2.4-9.4-6.5-12l-42.7-27.7v-24.3
				l8.3-19.3V229c0-10.8-4.2-20.9-11.8-28.5c-7.6-7.6-17.8-11.8-28.6-11.8h-19.5c-9.7,0-18.8,3.8-25.6,10.6
				c-6.8,6.8-10.6,15.9-10.6,25.6v12.3l-0.1,0.2L263,268.8z M327.7,388.5h-56l4.1-4.2c18.1-18.8,36.5-33.6,54.7-44.1
				c14-8,24.4-11.3,29.3-12.6l1.1-0.3l2.9,1.9l0.3-0.1l-0.2,0.1l2.9,1.9l-3.5,2c-17.7,10.1-42,25.3-57.3,40.4
				c-0.6,0.6-0.9,1.4-0.9,2.2c0,0.8,0.3,1.6,0.9,2.2c0.6,0.6,1.4,0.9,2.2,0.9l0.1,0c0.8,0,1.6-0.3,2.1-0.9
				c19.9-20,56.7-39.9,60.8-42.2l1.3-0.7l9,5.9l-2.9,2.1c-23.3,16.9-40.6,32.2-50.1,44.4L327.7,388.5z M276.3,386.5h50.4l0.1-0.2
				c9.5-12.3,27-27.8,50.5-44.8l0.6-0.4l-5.6-3.7l-0.3,0.1c-4.1,2.2-40.7,22-60.4,41.8c-0.9,0.9-2.3,1.5-3.6,1.5
				c-1.4,0-2.7-0.5-3.6-1.5c-1-1-1.5-2.3-1.5-3.6c0-1.4,0.5-2.7,1.5-3.6c15.4-15.2,39.9-30.5,57.7-40.7l0.7-0.4l-1-0.6l-5.9,3.5
				c-16,9.4-38,23.5-52.2,37.5c-1.2,1.2-1.8,2.7-1.8,4.3c0,1.6,0.7,3.2,1.8,4.3c1.2,1.1,2.7,1.8,4.3,1.8c1.7,0,3.2-0.6,4.4-1.8
				c18.7-18.8,52.7-37.6,59.3-41.2l0.5-0.3l3.9,2.6L375,342c-22.3,16.3-39,31.2-48.5,43.1l-0.3,0.4h-47.5l1.7-1.7
				c12-12.1,43.2-41.4,74.7-51.7l6.2-2l-0.8-0.6l-0.2,0.1c-4.8,1.2-15,4.5-28.8,12.4c-18.1,10.4-36.3,25.1-54.3,43.7L276.3,386.5z
				 M310.4,383.5h14.8c9.4-11.8,25.8-26.4,47.4-42.3l-0.5-0.3c-7.7,4.2-40.3,22.4-58.4,40.6C312.8,382.4,311.7,383.1,310.4,383.5z
				 M283.5,383.5h22.2c-1.3-0.4-2.4-1.1-3.3-2c-1.5-1.5-2.4-3.6-2.4-5.7c0-2.2,0.9-4.2,2.4-5.8c11.5-11.4,27.9-22.7,42.2-31.6
				C318.8,350.3,294.8,372.3,283.5,383.5z M407.3,388.5h-72l4.2-4.3c14.2-14.3,29.8-27.3,46.5-38.7l1.4-0.9l16.5,10.8
				c2.3,1.5,3.7,4,3.7,6.8L407.3,388.5z M340.1,386.5h65.3l0.2-24.4c0-2.1-1.1-4-2.8-5.1l-15.4-10l-0.3,0.2
				c-16.5,11.3-32.1,24.3-46.2,38.5L340.1,386.5z M404.4,385.5h-61.9l1.7-1.7c13.1-12.9,27.5-24.8,42.6-35.2l0.6-0.4l14.9,9.7
				c1.5,0.9,2.3,2.5,2.3,4.3L404.4,385.5z M347.4,383.5h55l0.2-21.4c0-1-0.5-2-1.4-2.6l-13.7-9C373.2,360.4,359.8,371.5,347.4,383.5
				z M267.8,383.4v-21.2c0-2.7,1.3-5.2,3.6-6.8l45.5-29.6v-20.4l2.1-0.4c9-1.6,16.9-6.6,22.2-14.1l0.1-0.2c0.6-0.7,0.9-1.6,0.8-2.5
				c-0.1-0.9-0.6-1.7-1.3-2.2c-0.7-0.5-1.6-0.7-2.5-0.5c-0.9,0.2-1.6,0.8-2,1.5l-0.1,0.2c-5.2,7.4-13.3,11.8-22.3,12.3l-17.9,0
				c-7.6,0-13.7-6.1-13.7-13.7v-17.2l-11.1-3.6l11.3-26.4l0-13.9c0-2.2,0.3-4.3,0.7-6.5l0.7-3.1l2.9,1.4c2.9,1.4,5.9,2.6,9,3.6
				l0.7,0.2l9.3,10.9c0.6,0.7,1.5,1.1,2.4,1.1c0.7,0,1.4-0.3,2-0.7c1.2-1,1.4-2.9,0.4-4.2l-3.4-4.6l5.7,0.6c2.8,0.3,5.6,0.4,8.4,0.4
				c2.4,0,4.9,0,7.5-0.3l1-0.1l1.3,0.9l0,0l13.1-3c5.8-1.3,11.7-3.1,17.3-5.2l2.4-0.9l0.8,2.4c1.3,3.6,1.9,7.4,1.9,11.2v48.7
				l-8.3,19.3v24.4l-1.9,0.5c-12,3.1-44.2,15-84.5,56.9L267.8,383.4z M319,307.1v19.9l-46.4,30.2c-1.7,1.2-2.7,3.1-2.7,5.1v16.2
				l0.9-0.9c40.6-42.3,73.3-54.3,85.4-57.5l0.4-0.1v-23.3l8.3-19.3v-48.3c0-3.6-0.6-7.2-1.8-10.6l-0.2-0.5l-0.5,0.2
				c-5.7,2.1-11.6,3.9-17.6,5.2l-4.4,1h4.6l0.3,0.3c1.9,1.8,2.1,4.6,0.6,6.7c-1,1.3-2.5,2.1-4.1,2.1c-1.1,0-2.1-0.3-3-1l-8.3-6.1h-8
				l2.2-0.5c-1.1,0-2.2,0-3.3,0c-2.9,0-5.8-0.2-8.6-0.4l-1.1-0.1l0.7,0.9c1.6,2.1,1.3,5.2-0.7,6.9c-0.9,0.8-2.1,1.2-3.3,1.2
				c-1.5,0-3-0.7-3.9-1.9l-8.9-10.5l-0.1,0c-3.2-1-6.3-2.2-9.3-3.7l-0.6-0.3l-0.1,0.6c-0.4,2-0.7,4-0.7,6.1l0,14.3L274,263.9
				l10.4,3.4V286c0,6.5,5.2,11.7,11.7,11.7l17.8,0c8.3-0.4,15.8-4.6,20.7-11.4l0.1-0.1c0.7-1.2,1.9-2.1,3.3-2.5
				c1.4-0.3,2.9,0,4.1,0.8c1.2,0.8,2,2.2,2.1,3.6c0.2,1.4-0.3,2.9-1.3,4l-0.1,0.1c-5.6,7.8-13.9,13.1-23.4,14.8L319,307.1z
				 M333.8,226.4l6.1,4.5c0.5,0.4,1.2,0.6,1.8,0.6c1,0,1.9-0.5,2.5-1.3c0.8-1.2,0.8-2.7-0.1-3.8H333.8z M270.8,376v-13.7
				c0-1.7,0.8-3.3,2.2-4.3l0,0l46.9-30.5v-19.6l0.8-0.2c9.2-2,17.4-7.3,22.9-15c1.2-1.4,1.7-3.1,1.5-4.8c-0.2-1.7-1.1-3.3-2.5-4.3
				c-1.4-1-3.2-1.4-4.9-1c-1.7,0.4-3.1,1.5-3.9,2.9l-0.1,0.1c-4.6,6.5-11.9,10.5-19.8,10.9l-17.8,0c-5.9,0-10.7-4.8-10.7-10.7v-19.4
				l-10-3.3l10.2-24l0-14.5c0-1.3,0.1-2.6,0.3-3.9l0.2-1.3l1.2,0.6c2.4,1.1,4.8,2,7.3,2.8l0.3,0.1l8.7,10.2c1.2,1.4,2.9,2.2,4.7,2.2
				c1.4,0,2.8-0.5,3.9-1.4c1.7-1.5,2.5-3.8,2-6l-0.3-1.3l1.4,0.1c2,0.1,4.1,0.2,6.1,0.2c2.3,0,4.8,0,7.3-0.3l0.4,0l9.1,6.7
				c1.1,0.8,2.3,1.2,3.6,1.2c1.9,0,3.8-0.9,4.9-2.5c1.4-2,1.6-4.6,0.3-6.7l-0.7-1.2l1.3-0.3c4.6-1.1,9.1-2.5,13.6-4.1l1-0.4l0.3,1
				c0.8,2.8,1.3,5.8,1.3,8.7v48.1l-8.3,19.3v22.7l-0.7,0.2c-35.3,9.8-69.2,41.6-82.2,54.8L270.8,376z M274.2,359.6
				c-0.9,0.6-1.4,1.6-1.3,2.6v8.9c14.1-14.1,46.6-43.6,80.6-53.4v-21.6l8.3-19.3v-47.6c0-2.4-0.3-4.8-0.9-7.2
				c-3.8,1.3-7.7,2.5-11.6,3.5c1,2.6,0.7,5.5-1,7.8c-1.5,2.1-3.9,3.3-6.5,3.3c-1.7,0-3.4-0.5-4.8-1.5l-8.5-6.3
				c-2.5,0.2-4.8,0.2-7.1,0.2c-1.7,0-3.4-0.1-5-0.2c0.2,2.5-0.8,5-2.8,6.7c-1.5,1.2-3.3,1.9-5.2,1.9c-2.4,0-4.7-1.1-6.2-2.9
				l-8.4-9.8c-2-0.7-4-1.4-6-2.3c-0.1,0.8-0.1,1.5-0.1,2.3l0,14.9l-9.5,22.4l9.3,3.1V286c0,4.8,3.9,8.7,8.7,8.7h17.8
				c7.3-0.4,13.9-4,18.2-10c1.1-1.9,3-3.4,5.2-3.9c2.3-0.5,4.6,0,6.5,1.3c1.9,1.3,3.1,3.4,3.4,5.7c0.2,2.3-0.5,4.5-2,6.2
				c-5.6,7.8-13.8,13.3-23.2,15.5v19L274.2,359.6z M321,217.6c-2.9,0-5.8-0.1-8.7-0.4l-6.8-0.7l9.4-6.4c0.6-0.5,1-1.2,1.2-2
				c0.1-0.8-0.1-1.6-0.6-2.3c-0.5-0.7-1.2-1.1-2-1.2c-0.8-0.1-1.6,0.1-2.3,0.6l-13.2,9.2l-1.2-0.4c-2.5-0.8-5-1.9-7.4-3l-2.7-1.3
				l1.7-2.4c5.6-7.8,14.7-12.5,24.3-12.5h19.8c0.1,0,0.2,0,0.3,0c9.9,0,19.3,4.4,25.8,12.1l2.3,2.7l-3.4,1.2c-4.6,1.6-9.3,3-14,4.1
				l-7.7,1.8l7.5-8.4c1.2-1.3,1-3.3-0.2-4.4c-0.6-0.6-1.4-0.8-2.2-0.8c-0.8,0-1.6,0.4-2.2,1L327,217.4l-1,0.1
				C324.3,217.5,322.6,217.6,321,217.6z M311.1,215l1.4,0.1c4.4,0.4,8.9,0.5,13.3,0.3l0.2,0l11.3-12.8c0.9-1,2.2-1.6,3.5-1.7
				c1.4-0.1,2.7,0.4,3.7,1.3c2.1,1.9,2.3,5.1,0.4,7.2l-3.3,3.7l1.5-0.4c4.6-1.1,9.2-2.4,13.7-4l0.7-0.2l-0.5-0.5
				c-6.1-7.2-14.9-11.4-24.3-11.4c-0.1,0-0.2,0-0.3,0h-19.8c-8.9,0-17.4,4.4-22.6,11.6l-0.3,0.5l0.5,0.3c2.3,1.1,4.7,2.1,7.1,2.9
				l0.2,0.1l12.4-8.6c1.1-0.8,2.4-1.1,3.8-0.9c1.3,0.2,2.5,0.9,3.3,2c0.8,1.1,1.1,2.5,0.9,3.8c-0.2,1.3-0.9,2.5-2,3.3L311.1,215z
				 M353.4,208.8c-2.9,0-6-4.1-7-5.8l-1.8-3.2l3.2,1.8c2.6,1.4,4.9,3.3,7,5.4l1.1,1.1l-1.5,0.5C354.1,208.8,353.7,208.8,353.4,208.8
				z M312.9,199.7c-0.2,0-0.5,0-0.7,0c-0.5,0-0.8,0-0.9,0v0c-0.8-0.1-1-0.3-1-1c0-0.7,0.3-0.9,1-1v0c0,0,0.3,0,0.7,0
				c0.2,0,0.4,0,0.6,0l14.7,0c1.1,0,2.1,0,2.8,0l2.3,0l0,0.1c1,0.1,1,0.4,1,0.9c0,0,0,1-1.1,1H318c-0.1,0-0.3,0-0.4,0l-4.4,0
				C313.1,199.7,313,199.7,312.9,199.7z"/>
		</g>
	</g>
	<g>
		<g>
			<path class="st1" d="M337.7,423.2c-12.6,0-123.2,0.8-123.2,28v19.2c0,3.1,2.5,5.6,5.6,5.6c3.1,0,5.6-2.5,5.6-5.6v-6.1
				c25.3,12.8,86.1,14.6,106.4,14.8v9.1c0,3.1,2.5,5.6,5.6,5.6s5.6-2.5,5.6-5.6v-9.1c20.3,0,81.1-2.1,106.4-14.8v6.1v0
				c0,3.1,2.5,5.6,5.6,5.6c3.1,0,5.6-2.5,5.6-5.6v-19.2C460.9,424,350.3,423.2,337.7,423.2L337.7,423.2z M337.7,468
				c-68.2,0-107.7-10.6-112-16.8c4.1-6.3,43.7-16.8,112-16.8s107.7,10.5,112,16.8C445.4,457.4,405.8,468,337.7,468z"/>
			<path class="st1" d="M337.7,494.8c-3.6,0-6.6-3-6.6-6.6v-8.1c-24-0.4-79.3-2.5-104.4-14.2v4.5c0,3.6-3,6.6-6.6,6.6
				c-3.6,0-6.6-3-6.6-6.6v-19.2c0-12,19.4-20.5,57.8-25.2c29.4-3.6,60.5-3.8,66.4-3.8s37.1,0.2,66.4,3.8
				c38.3,4.7,57.8,13.2,57.8,25.2v19.2c0,3.6-3,6.6-6.6,6.6c-3.6,0-6.6-3-6.6-6.6v-4.5c-28.6,13.4-95,14.2-104.4,14.2v8.1
				C344.3,491.8,341.3,494.8,337.7,494.8z M224.7,462.7l1.5,0.7c24.4,12.3,82.2,14.4,106,14.7l1,0v10.1c0,2.5,2.1,4.6,4.6,4.6
				s4.6-2.1,4.6-4.6v-10.1h1c3.1,0,77.1-0.2,105.9-14.7l1.5-0.7v7.7c0,2.5,2.1,4.6,4.6,4.6c2.5,0,4.6-2.1,4.6-4.6v-19.2
				c0-21.3-76.8-27-122.2-27h0c-45.4,0-122.2,5.7-122.2,27v19.2c0,2.5,2.1,4.6,4.6,4.6c2.5,0,4.6-2.1,4.6-4.6V462.7z M337.7,469
				c-65.9,0-107.9-10-112.8-17.2l-0.4-0.6l0.4-0.6c4.7-7.2,46.6-17.3,112.8-17.3c66,0,107.9,10,112.8,17.2l0.4,0.6l-0.4,0.6
				C445.5,459,403.6,469,337.7,469z M227,451.2c5.8,5.7,43.2,15.8,110.7,15.8c67.5,0,104.9-10.1,110.7-15.8
				c-5.8-5.7-43.2-15.8-110.7-15.8C269.8,435.4,232.6,445.5,227,451.2z"/>
		</g>
		<g>
			<path class="st1" d="M337.7,495.3c-3.9,0-7.1-3.2-7.1-7.1v-7.6c-24.1-0.4-78-2.6-103.4-13.9v3.7c0,3.9-3.2,7.1-7.1,7.1
				c-3.9,0-7.1-3.2-7.1-7.1v-19.2c0-28.1,103.9-29.5,124.7-29.5s124.7,1.4,124.7,29.5v19.2c0,3.9-3.2,7.1-7.1,7.1
				c-3.9,0-7.1-3.2-7.1-7.1v-3.7c-28.6,12.9-92.5,13.9-103.4,14v7.6C344.8,492.1,341.6,495.3,337.7,495.3z M224.2,461.9l2.2,1.1
				c24.3,12.3,82,14.4,105.7,14.7l1.5,0v10.5c0,2.3,1.8,4.1,4.1,4.1s4.1-1.8,4.1-4.1v-10.6h1.5c3.1,0,77-0.2,105.7-14.7l2.2-1.1v8.5
				c0,2.3,1.8,4.1,4.1,4.1c2.3,0,4.1-1.8,4.1-4.1v-19.2c0-7.2-9.6-17.1-55.6-22.7c-29.2-3.6-60.2-3.8-66.1-3.8h0
				c-5.9,0-36.9,0.2-66.1,3.8c-45.9,5.7-55.6,15.5-55.6,22.7v19.2c0,2.3,1.8,4.1,4.1,4.1c2.3,0,4.1-1.8,4.1-4.1V461.9z M337.7,469.5
				c-66.1,0-108.2-10.1-113.2-17.5l-0.6-0.8l0.5-0.8c4.8-7.3,46.8-17.5,113.3-17.5c38.6,0,64.9,3.3,80.3,6.1
				c18,3.2,30.3,7.5,33,11.4l0.6,0.8l-0.6,0.8C445.9,459.4,403.7,469.5,337.7,469.5z M227.7,451.2c6.5,5.1,42.8,15.3,109.9,15.3
				c67.2,0,103.5-10.2,109.9-15.3c-7.1-5.9-46.7-15.3-109.9-15.3C270.2,435.9,234.1,446,227.7,451.2z"/>
			<path class="st1" d="M337.7,496.3c-4.5,0-8.1-3.6-8.1-8.1v-6.6c-22.8-0.4-75.4-2.5-101.4-13.4v2.2c0,4.5-3.6,8.1-8.1,8.1
				c-4.5,0-8.1-3.6-8.1-8.1v-19.2c0-12.5,18.6-21.3,55.4-26.3c28.2-3.8,58.6-4.2,70.3-4.2s42.1,0.4,70.3,4.2
				c36.8,5,55.4,13.8,55.4,26.3v19.2c0,4.5-3.6,8.1-8.1,8.1s-8.1-3.6-8.1-8.1v-2.2c-28.5,12-87.3,13.3-101.4,13.4v6.6
				C345.8,492.7,342.1,496.3,337.7,496.3z M226.2,465.1l1.4,0.6c25.4,11.4,80.5,13.5,103,13.9l1,0v8.6c0,3.4,2.7,6.1,6.1,6.1
				s6.1-2.7,6.1-6.1v-8.6l1,0c12.2-0.1,74.8-1.2,103-13.9l1.4-0.6v5.3c0,3.4,2.7,6.1,6.1,6.1s6.1-2.7,6.1-6.1v-19.2
				c0-21-66.6-28.5-123.7-28.5c-57.1,0-123.7,7.5-123.7,28.5v19.2c0,3.4,2.7,6.1,6.1,6.1c3.4,0,6.1-2.7,6.1-6.1V465.1z M337.7,493.3
				c-2.8,0-5.1-2.3-5.1-5.1v-9.6l-0.5,0c-23.8-0.3-81.7-2.4-106.2-14.8l-0.7-0.4v6.9c0,2.8-2.3,5.1-5.1,5.1c-2.8,0-5.1-2.3-5.1-5.1
				v-19.2c0-11.1,19-19.1,56.4-23.7c29.3-3.6,60.3-3.8,66.3-3.8s37,0.2,66.3,3.8c37.4,4.6,56.4,12.6,56.4,23.7v19.2
				c0,2.8-2.3,5.1-5.1,5.1c-2.8,0-5.1-2.3-5.1-5.1v-6.9l-0.7,0.4c-28.9,14.6-103,14.8-106.2,14.8h-0.5v9.6
				C342.8,491,340.5,493.3,337.7,493.3z M223.2,460.2l3.6,1.8c24.1,12.2,81.7,14.2,105.3,14.6l2.5,0v11.5c0,1.7,1.4,3.1,3.1,3.1
				s3.1-1.4,3.1-3.1v-11.6h2.5c3.1,0,76.8-0.2,105.3-14.6l3.6-1.8v10.2c0,1.7,1.4,3.1,3.1,3.1c1.7,0,3.1-1.4,3.1-3.1v-19.2
				c0-13-34.3-19.2-54.7-21.7c-29.2-3.6-60.1-3.8-66-3.8s-36.8,0.2-66,3.8c-20.4,2.5-54.7,8.7-54.7,21.7v19.2c0,1.7,1.4,3.1,3.1,3.1
				c1.7,0,3.1-1.4,3.1-3.1V460.2z M337.7,470.5c-62.9,0-108.2-9.3-114.1-17.9l-0.9-1.4l0.9-1.4c5.6-8.6,50.8-17.9,114.1-17.9
				c38.6,0,65.1,3.3,80.5,6.1c18.5,3.3,30.8,7.6,33.6,11.8l1,1.4l-1,1.4C445.8,461.2,400.5,470.5,337.7,470.5z M225.1,451.2l0.2,0.3
				c4.8,7,47.5,17,112.4,17c37.8,0,64-3.2,79.3-6c21.4-3.8,31.1-8.2,33.1-11.1l0.2-0.3l-0.2-0.3c-1.9-2.8-11.4-7.2-32.3-11
				c-15.3-2.8-41.6-6.1-80.1-6.1c-38,0-64.3,3.2-79.6,6c-21.4,3.8-31,8.2-32.8,11.1L225.1,451.2z M337.7,467.5
				c-68.6,0-104.1-10.5-110.6-15.5l-1-0.8l1-0.8c6.3-5.1,41.6-15.5,110.6-15.5c62.8,0,103.1,9.3,110.6,15.5l0.9,0.8l-1,0.8
				C441.8,457,406.3,467.5,337.7,467.5z M229.5,451.2c8.6,5,44.2,14.3,108.1,14.3c64.1,0,99.6-9.3,108.2-14.3
				c-8.9-5.4-46.7-14.3-108.2-14.3C273.4,436.9,238,446.2,229.5,451.2z"/>
		</g>
	</g>
	<g>
		<g>
			<path class="st1" d="M455.3,482.9c-3.1,0-5.6,2.5-5.6,5.6v10.3c-2.7,6.2-42.6,17.2-112,17.2s-109.3-11.2-112-16.8V488
				c0-3.1-2.5-5.6-5.6-5.6c-3.1,0-5.6,2.5-5.6,5.6v11.2c0,27.2,110.6,28,123.2,28c12.6,0,123.2-0.8,123.2-28V488
				C460.6,485.1,458.2,482.9,455.3,482.9L455.3,482.9z"/>
			<path class="st1" d="M337.7,528.2c-5.9,0-37.1-0.2-66.4-3.8c-38.3-4.7-57.8-13.2-57.8-25.2V488c0-3.6,3-6.6,6.6-6.6
				c3.6,0,6.6,3,6.6,6.6v10.9c3,4.6,40.4,16.1,111,16.1c72,0,108.1-11.6,111-16.4v-10.1c0-3.6,3-6.6,6.6-6.6c0,0,0,0,0,0
				c3.4,0,6.3,2.6,6.6,6l0,11.3c0,12-19.4,20.5-57.8,25.2C374.7,528,343.6,528.2,337.7,528.2z M220.1,483.4c-2.5,0-4.6,2.1-4.6,4.6
				v11.2c0,21.3,76.8,27,122.2,27c45.4,0,122.2-5.7,122.2-27V488c-0.2-2.3-2.2-4.1-4.6-4.1c0,0,0,0,0,0h0c-2.5,0-4.6,2.1-4.6,4.6
				V499l-0.1,0.2c-3.2,7.3-45.3,17.8-112.9,17.8c-69.6,0-109.9-11.1-112.9-17.4l-0.1-0.2V488C224.7,485.4,222.6,483.4,220.1,483.4z"
				/>
		</g>
		<g>
			<path class="st1" d="M337.7,528.7c-20.8,0-124.7-1.4-124.7-29.5V488c0-3.9,3.2-7.1,7.1-7.1c3.9,0,7.1,3.2,7.1,7.1v10.8
				c3.3,4.6,40.5,15.7,110.5,15.7c71.4,0,107.4-11.3,110.5-16.1v-9.9c0-3.9,3.2-7.1,7.1-7.1c0,0,0,0,0,0c3.7,0,6.7,2.8,7.1,6.5
				l0,0.1v11.2C462.4,527.3,358.5,528.7,337.7,528.7z M220.1,483.9c-2.3,0-4.1,1.8-4.1,4.1v11.2c0,7.2,9.6,17.1,55.6,22.7
				c29.2,3.6,60.2,3.8,66.1,3.8s36.9-0.2,66.1-3.8c45.9-5.7,55.6-15.5,55.6-22.7V488c-0.2-2.1-2-3.7-4.1-3.7c0,0,0,0,0,0h0
				c-2.3,0-4.1,1.8-4.1,4.1v10.6l-0.1,0.3c-3.3,7.4-45.6,18.1-113.4,18.1c-38.8,0-65.6-3.4-81.3-6.3c-6.9-1.3-29.4-5.8-32.1-11.3
				l-0.1-0.3V488C224.2,485.7,222.3,483.9,220.1,483.9z"/>
			<path class="st1" d="M337.7,529.7c-11.7,0-42.1-0.4-70.3-4.2c-36.8-5-55.4-13.8-55.4-26.3V488c0-4.5,3.6-8.1,8.1-8.1
				c4.5,0,8.1,3.6,8.1,8.1v10.4c3.6,3.5,37.1,15.1,109.5,15.1c74.2,0,106.2-11.7,109.5-15.4v-9.6c0-4.5,3.6-8.1,8.1-8.1
				c4.2,0,7.7,3.2,8.1,7.4l0,0.2l0,11.2c0,12.5-18.6,21.3-55.4,26.3C379.7,529.3,349.4,529.7,337.7,529.7z M220.1,481.9
				c-3.4,0-6.1,2.7-6.1,6.1v11.2c0,21,66.6,28.5,123.7,28.5s123.7-7.5,123.7-28.5l0-11.3c-0.3-3.1-2.9-5.5-6.1-5.5
				c-3.4,0-6.1,2.7-6.1,6.1v10.2L449,499c-3.6,5.6-41.2,16.5-111.3,16.5c-66.3,0-107.1-10.3-111.3-16.1l-0.2-0.3V488
				C226.2,484.6,223.4,481.9,220.1,481.9z M337.7,526.7c-5.9,0-37-0.2-66.3-3.8c-37.4-4.6-56.4-12.6-56.4-23.7V488
				c0-2.8,2.3-5.1,5.1-5.1c2.8,0,5.1,2.3,5.1,5.1l0,11.4c1.6,3.3,13.9,7.6,31.4,10.8c15.6,2.9,42.4,6.3,81.1,6.3
				c69.7,0,109.7-11.2,112.5-17.5l0-0.1v-10.4c0-2.8,2.3-5.1,5.1-5.1c2.6,0,4.8,2,5.1,4.6l0,0.1v11.1c0,11.1-19,19.1-56.4,23.7
				C374.6,526.5,343.6,526.7,337.7,526.7z M220.1,484.9c-1.7,0-3.1,1.4-3.1,3.1v11.2c0,13,34.3,19.2,54.7,21.7
				c29.2,3.6,60.1,3.8,66,3.8s36.8-0.2,66-3.8c20.4-2.5,54.7-8.7,54.7-21.7v-11.1c-0.2-1.6-1.5-2.7-3.1-2.7c-1.7,0-3.1,1.4-3.1,3.1
				v10.8l-0.2,0.5c-3.5,7.8-45.1,18.7-114.3,18.7c-38.9,0-65.8-3.4-81.5-6.3c-8.9-1.6-30-6.1-32.8-11.9l-0.2-0.5V488
				C223.2,486.3,221.8,484.9,220.1,484.9z"/>
		</g>
	</g>
	<g>
		<g>
			<path class="st1" d="M455.3,378.6c-3.1,0-5.6,2.5-5.6,5.6v28c0,3.1,2.5,5.6,5.6,5.6c3.1,0,5.6-2.5,5.6-5.6v-28
				c0-1.5-0.6-2.9-1.6-4C458.2,379.1,456.7,378.6,455.3,378.6L455.3,378.6z"/>
			<path class="st1" d="M455.3,418.8c-3.6,0-6.6-3-6.6-6.6v-28c0-3.6,3-6.6,6.6-6.6c1.8,0,3.4,0.7,4.7,1.9c1.2,1.2,1.9,2.9,1.9,4.7
				v28C461.9,415.8,458.9,418.8,455.3,418.8z M455.3,379.6c-2.5,0-4.6,2.1-4.6,4.6v28c0,2.5,2.1,4.6,4.6,4.6c2.5,0,4.6-2.1,4.6-4.6
				v-28c0-1.2-0.5-2.4-1.3-3.3C457.6,380,456.5,379.6,455.3,379.6z"/>
		</g>
		<g>
			<path class="st1" d="M455.3,419.3c-3.9,0-7.1-3.2-7.1-7.1v-28c0-3.9,3.2-7.1,7.1-7.1c1.9,0,3.7,0.7,5,2.1c1.3,1.3,2.1,3.2,2.1,5
				v28C462.4,416.1,459.2,419.3,455.3,419.3z M455.3,380.1c-2.3,0-4.1,1.8-4.1,4.1v28c0,2.3,1.8,4.1,4.1,4.1c2.3,0,4.1-1.8,4.1-4.1
				v-28c0-1.1-0.4-2.1-1.2-2.9C457.4,380.5,456.3,380.1,455.3,380.1z"/>
			<path class="st1" d="M455.3,420.3c-4.5,0-8.1-3.6-8.1-8.1v-28c0-4.5,3.6-8.1,8.1-8.1c2.2,0,4.2,0.8,5.7,2.4
				c1.5,1.5,2.4,3.6,2.4,5.7v28C463.4,416.6,459.7,420.3,455.3,420.3z M455.3,378.1c-3.4,0-6.1,2.7-6.1,6.1v28
				c0,3.4,2.7,6.1,6.1,6.1c3.4,0,6.1-2.7,6.1-6.1v-28c0-1.6-0.7-3.2-1.8-4.3C458.4,378.7,456.9,378.1,455.3,378.1z M455.3,417.3
				c-2.8,0-5.1-2.3-5.1-5.1v-28c0-2.8,2.3-5.1,5.1-5.1c1.4,0,2.6,0.5,3.6,1.5c0.9,0.9,1.5,2.3,1.5,3.6v28
				C460.4,415,458.1,417.3,455.3,417.3z M455.3,381.1c-1.7,0-3.1,1.4-3.1,3.1v28c0,1.7,1.4,3.1,3.1,3.1c1.7,0,3.1-1.4,3.1-3.1v-28
				c0-0.8-0.3-1.6-0.9-2.2C456.9,381.4,456.1,381.1,455.3,381.1z"/>
		</g>
	</g>
	<g>
		<g>
			<path class="st1" d="M455.3,340.8c-3.1,0-5.6,2.5-5.6,5.6v13.2c0,3.1,2.5,5.6,5.6,5.6c3.1,0,5.6-2.5,5.6-5.6v-13.2
				c0-1.5-0.6-2.9-1.6-4C458.2,341.3,456.7,340.8,455.3,340.8L455.3,340.8z"/>
			<path class="st1" d="M455.3,366.1c-3.6,0-6.6-3-6.6-6.6v-13.2c0-3.6,3-6.6,6.6-6.6c1.8,0,3.4,0.7,4.7,1.9
				c1.2,1.2,1.9,2.9,1.9,4.7v13.2C461.9,363.2,458.9,366.1,455.3,366.1z M455.3,341.8c-2.5,0-4.6,2.1-4.6,4.6v13.2
				c0,2.5,2.1,4.6,4.6,4.6c2.5,0,4.6-2.1,4.6-4.6v-13.2c0-1.2-0.5-2.4-1.3-3.3C457.6,342.2,456.5,341.8,455.3,341.8z"/>
		</g>
		<g>
			<path class="st1" d="M455.3,366.6c-3.9,0-7.1-3.2-7.1-7.1v-13.2c0-3.9,3.2-7.1,7.1-7.1c1.9,0,3.7,0.7,5,2.1
				c1.3,1.3,2.1,3.2,2.1,5v13.2C462.4,363.4,459.2,366.6,455.3,366.6z M455.3,342.3c-2.3,0-4.1,1.8-4.1,4.1v13.2
				c0,2.3,1.8,4.1,4.1,4.1c2.3,0,4.1-1.8,4.1-4.1v-13.2c0-1.1-0.4-2.1-1.2-2.9C457.4,342.7,456.3,342.3,455.3,342.3z"/>
			<path class="st1" d="M455.3,367.6c-4.5,0-8.1-3.6-8.1-8.1v-13.2c0-4.5,3.6-8.1,8.1-8.1c2.2,0,4.2,0.8,5.7,2.4
				c1.5,1.5,2.4,3.6,2.4,5.7v13.2C463.4,364,459.7,367.6,455.3,367.6z M455.3,340.3c-3.4,0-6.1,2.7-6.1,6.1v13.2
				c0,3.4,2.7,6.1,6.1,6.1c3.4,0,6.1-2.7,6.1-6.1v-13.2c0-1.6-0.7-3.2-1.8-4.3C458.4,340.9,456.9,340.3,455.3,340.3z M455.3,364.6
				c-2.8,0-5.1-2.3-5.1-5.1v-13.2c0-2.8,2.3-5.1,5.1-5.1c1.4,0,2.6,0.5,3.6,1.5c1,1,1.5,2.3,1.5,3.6v13.2
				C460.4,362.3,458.1,364.6,455.3,364.6z M455.3,343.3c-1.7,0-3.1,1.4-3.1,3.1v13.2c0,1.7,1.4,3.1,3.1,3.1c1.7,0,3.1-1.4,3.1-3.1
				v-13.2c0-0.8-0.3-1.6-0.9-2.2C456.9,343.6,456.1,343.3,455.3,343.3z"/>
		</g>
	</g>
	<g>
		<g>
			<path class="st1" d="M455.3,303.7c-3.1,0-5.6,2.5-5.6,5.6v7.6c0,3.1,2.5,5.6,5.6,5.6c3.1,0,5.6-2.5,5.6-5.6v-7.6
				c0-1.5-0.6-2.9-1.6-4C458.2,304.3,456.7,303.7,455.3,303.7L455.3,303.7z"/>
			<path class="st1" d="M455.3,323.5c-3.6,0-6.6-3-6.6-6.6v-7.6c0-3.6,3-6.6,6.6-6.6c1.8,0,3.4,0.7,4.7,1.9c1.2,1.2,1.9,2.9,1.9,4.7
				v7.6C461.9,320.5,458.9,323.5,455.3,323.5z M455.3,304.7c-2.5,0-4.6,2.1-4.6,4.6v7.6c0,2.5,2.1,4.6,4.6,4.6
				c2.5,0,4.6-2.1,4.6-4.6v-7.6c0-1.2-0.5-2.4-1.3-3.3C457.6,305.2,456.5,304.7,455.3,304.7z"/>
		</g>
		<g>
			<path class="st1" d="M455.3,324c-3.9,0-7.1-3.2-7.1-7.1v-7.6c0-3.9,3.2-7.1,7.1-7.1c1.9,0,3.7,0.7,5,2.1c1.3,1.3,2.1,3.2,2.1,5
				v7.6C462.4,320.8,459.2,324,455.3,324z M455.3,305.2c-2.3,0-4.1,1.8-4.1,4.1v7.6c0,2.3,1.8,4.1,4.1,4.1c2.3,0,4.1-1.8,4.1-4.1
				v-7.6c0-1.1-0.4-2.1-1.2-2.9C457.4,305.7,456.3,305.2,455.3,305.2z"/>
			<path class="st1" d="M455.3,325c-4.5,0-8.1-3.6-8.1-8.1v-7.6c0-4.5,3.6-8.1,8.1-8.1c2.2,0,4.2,0.8,5.7,2.4
				c1.5,1.5,2.4,3.6,2.4,5.7v7.6C463.4,321.4,459.7,325,455.3,325z M455.3,303.2c-3.4,0-6.1,2.7-6.1,6.1v7.6c0,3.4,2.7,6.1,6.1,6.1
				c3.4,0,6.1-2.7,6.1-6.1v-7.6c0-1.6-0.7-3.2-1.8-4.3C458.4,303.9,456.9,303.2,455.3,303.2z M455.3,322c-2.8,0-5.1-2.3-5.1-5.1
				v-7.6c0-2.8,2.3-5.1,5.1-5.1c1.4,0,2.6,0.5,3.6,1.5c1,1,1.5,2.3,1.5,3.6v7.6C460.4,319.7,458.1,322,455.3,322z M455.3,306.2
				c-1.7,0-3.1,1.4-3.1,3.1v7.6c0,1.7,1.4,3.1,3.1,3.1c1.7,0,3.1-1.4,3.1-3.1v-7.6c0-0.8-0.3-1.6-0.9-2.2
				C456.9,306.6,456.1,306.2,455.3,306.2z"/>
		</g>
	</g>
	<g>
		<g>
			<path class="st1" d="M220.1,259.9c1.5,0,2.9-0.6,4-1.6c1.1-1.1,1.6-2.5,1.6-4v-7.6c0-3.1-2.5-5.6-5.6-5.6c-3.1,0-5.6,2.5-5.6,5.6
				v7.6c0,1.5,0.6,2.9,1.6,4C217.1,259.4,218.6,259.9,220.1,259.9L220.1,259.9z"/>
			<path class="st1" d="M220.1,260.9c-1.8,0-3.4-0.7-4.7-1.9c-1.2-1.2-1.9-2.9-1.9-4.7v-7.6c0-3.6,3-6.6,6.6-6.6
				c3.6,0,6.6,3,6.6,6.6v7.6c0,1.7-0.7,3.4-1.9,4.7C223.5,260.3,221.8,260.9,220.1,260.9z M220.1,242.2c-2.5,0-4.6,2.1-4.6,4.6v7.6
				c0,1.2,0.5,2.4,1.3,3.3c0.9,0.9,2,1.3,3.2,1.3c1.2,0,2.4-0.5,3.3-1.3c0.9-0.9,1.3-2,1.3-3.3v-7.6
				C224.7,244.2,222.6,242.2,220.1,242.2z"/>
		</g>
		<g>
			<path class="st1" d="M220.1,261.4c-1.9,0-3.7-0.7-5-2.1c-1.3-1.3-2.1-3.2-2.1-5v-7.6c0-3.9,3.2-7.1,7.1-7.1
				c3.9,0,7.1,3.2,7.1,7.1v7.6c0,1.9-0.8,3.7-2.1,5C223.7,260.7,222,261.4,220.1,261.4z M220.1,242.7c-2.3,0-4.1,1.8-4.1,4.1v7.6
				c0,1.1,0.4,2.1,1.2,2.9c0.8,0.8,1.8,1.2,2.9,1.2c1.1,0,2.1-0.4,2.9-1.2c0.8-0.8,1.2-1.8,1.2-2.9v-7.6
				C224.2,244.5,222.3,242.7,220.1,242.7z"/>
			<path class="st1" d="M220.1,262.4c-2.2,0-4.2-0.8-5.7-2.4c-1.5-1.5-2.4-3.6-2.4-5.7v-7.6c0-4.5,3.6-8.1,8.1-8.1
				c4.5,0,8.1,3.6,8.1,8.1v7.6c0,2.1-0.9,4.2-2.4,5.7C224.3,261.6,222.2,262.4,220.1,262.4z M220.1,240.7c-3.4,0-6.1,2.7-6.1,6.1
				v7.6c0,1.6,0.7,3.2,1.8,4.3c1.2,1.2,2.7,1.8,4.3,1.8c1.6,0,3.2-0.6,4.3-1.8c1.1-1.1,1.8-2.7,1.8-4.3v-7.6
				C226.2,243.4,223.4,240.7,220.1,240.7z M220.1,259.4c-1.4,0-2.6-0.5-3.6-1.5c-0.9-0.9-1.5-2.3-1.5-3.6v-7.6
				c0-2.8,2.3-5.1,5.1-5.1c2.8,0,5.1,2.3,5.1,5.1v7.6c0,1.3-0.5,2.7-1.5,3.6C222.7,258.9,221.4,259.4,220.1,259.4z M220.1,243.7
				c-1.7,0-3.1,1.4-3.1,3.1v7.6c0,0.8,0.3,1.6,0.9,2.2c1.2,1.2,3.2,1.2,4.4,0c0.6-0.6,0.9-1.4,0.9-2.2v-7.6
				C223.2,245.1,221.8,243.7,220.1,243.7z"/>
		</g>
	</g>
	<g>
		<g>
			<path class="st1" d="M220.1,320.3c1.5,0,2.9-0.6,4-1.6s1.6-2.5,1.6-4v-35.6c0-3.1-2.5-5.6-5.6-5.6c-3.1,0-5.6,2.5-5.6,5.6v35.6
				c0,1.5,0.6,2.9,1.6,4C217.1,319.7,218.6,320.3,220.1,320.3L220.1,320.3z"/>
			<path class="st1" d="M220.1,321.3c-1.8,0-3.4-0.7-4.7-1.9c-1.2-1.2-1.9-2.9-1.9-4.7v-35.6c0-3.6,3-6.6,6.6-6.6
				c3.6,0,6.6,3,6.6,6.6v35.6c0,1.8-0.7,3.4-1.9,4.7C223.5,320.6,221.8,321.3,220.1,321.3z M220.1,274.6c-2.5,0-4.6,2.1-4.6,4.6
				v35.6c0,1.2,0.5,2.4,1.3,3.3s2,1.3,3.2,1.3c1.2,0,2.4-0.5,3.3-1.3s1.3-2,1.3-3.3v-35.6C224.7,276.6,222.6,274.6,220.1,274.6z"/>
		</g>
		<g>
			<path class="st1" d="M220.1,321.8c-1.9,0-3.7-0.7-5-2.1c-1.3-1.3-2.1-3.1-2.1-5v-35.6c0-3.9,3.2-7.1,7.1-7.1
				c3.9,0,7.1,3.2,7.1,7.1v35.6c0,1.9-0.7,3.7-2.1,5C223.7,321.1,222,321.8,220.1,321.8z M220.1,275.1c-2.3,0-4.1,1.8-4.1,4.1v35.6
				c0,1.1,0.4,2.1,1.2,2.9c0.8,0.8,1.8,1.2,2.9,1.2c1.1,0,2.1-0.4,2.9-1.2c0.8-0.8,1.2-1.8,1.2-2.9v-35.6
				C224.2,276.9,222.3,275.1,220.1,275.1z"/>
			<path class="st1" d="M220.1,322.8c-2.2,0-4.2-0.8-5.7-2.4c-1.5-1.5-2.4-3.6-2.4-5.7v-35.6c0-4.5,3.6-8.1,8.1-8.1
				c4.5,0,8.1,3.6,8.1,8.1v35.6c0,2.2-0.8,4.2-2.4,5.7C224.3,322,222.2,322.8,220.1,322.8z M220.1,273.1c-3.4,0-6.1,2.7-6.1,6.1
				v35.6c0,1.6,0.6,3.2,1.8,4.3s2.7,1.8,4.3,1.8c1.6,0,3.2-0.6,4.3-1.8s1.8-2.7,1.8-4.3v-35.6C226.2,275.8,223.4,273.1,220.1,273.1z
				 M220.1,319.8c-1.4,0-2.6-0.5-3.6-1.5c-1-1-1.5-2.2-1.5-3.6v-35.6c0-2.8,2.3-5.1,5.1-5.1c2.8,0,5.1,2.3,5.1,5.1v35.6
				c0,1.4-0.5,2.6-1.5,3.6C222.7,319.3,221.4,319.8,220.1,319.8z M220.1,276.1c-1.7,0-3.1,1.4-3.1,3.1v35.6c0,0.8,0.3,1.6,0.9,2.2
				c1.2,1.2,3.2,1.2,4.4,0c0.6-0.6,0.9-1.4,0.9-2.2v-35.6C223.2,277.4,221.8,276.1,220.1,276.1z"/>
		</g>
	</g>
	<g>
		<g>
			<path class="st1" d="M220.1,367.3c1.5,0,2.9-0.6,4-1.6s1.6-2.5,1.6-4v-18.8c0-3.1-2.5-5.6-5.6-5.6c-3.1,0-5.6,2.5-5.6,5.6v18.8v0
				c0,1.5,0.6,2.9,1.6,4C217.1,366.7,218.6,367.3,220.1,367.3L220.1,367.3z"/>
			<path class="st1" d="M220.1,368.3c-1.8,0-3.4-0.7-4.7-1.9c-1.2-1.2-1.9-2.9-1.9-4.7v-18.8c0-3.6,3-6.6,6.6-6.6
				c3.6,0,6.6,3,6.6,6.6v18.8c0,1.7-0.7,3.4-1.9,4.7C223.5,367.6,221.8,368.3,220.1,368.3z M215.5,361.7c0,1.2,0.5,2.4,1.3,3.3
				c0.9,0.9,2,1.3,3.2,1.3c1.2,0,2.4-0.5,3.3-1.3c0.9-0.9,1.3-2,1.3-3.3v-18.8c0-2.5-2.1-4.6-4.6-4.6c-2.5,0-4.6,2.1-4.6,4.6V361.7z
				"/>
		</g>
		<g>
			<path class="st1" d="M220.1,368.8c-1.9,0-3.7-0.7-5-2.1c-1.3-1.3-2.1-3.1-2.1-5v-18.8c0-3.9,3.2-7.1,7.1-7.1
				c3.9,0,7.1,3.2,7.1,7.1v18.8c0,1.9-0.8,3.7-2.1,5C223.7,368.1,222,368.8,220.1,368.8z M216,361.7c0,1.1,0.4,2.1,1.2,2.9
				c0.8,0.8,1.8,1.2,2.9,1.2c1.1,0,2.1-0.4,2.9-1.2c0.8-0.8,1.2-1.8,1.2-2.9v-18.8c0-2.3-1.8-4.1-4.1-4.1c-2.3,0-4.1,1.8-4.1,4.1
				V361.7z"/>
			<path class="st1" d="M220.1,369.8c-2.2,0-4.2-0.8-5.7-2.4c-1.5-1.5-2.4-3.6-2.4-5.7v-18.8c0-4.5,3.6-8.1,8.1-8.1
				c4.5,0,8.1,3.6,8.1,8.1v18.8c0,2.1-0.9,4.2-2.4,5.7C224.3,369,222.2,369.8,220.1,369.8z M220.1,336.8c-3.4,0-6.1,2.7-6.1,6.1
				v18.8c0,1.6,0.7,3.2,1.8,4.3c1.2,1.2,2.7,1.8,4.3,1.8c1.6,0,3.2-0.6,4.3-1.8c1.1-1.1,1.8-2.7,1.8-4.3v-18.8
				C226.2,339.6,223.4,336.8,220.1,336.8z M220.1,366.8c-1.4,0-2.6-0.5-3.6-1.5c-0.9-0.9-1.5-2.3-1.5-3.6v-18.8
				c0-2.8,2.3-5.1,5.1-5.1c2.8,0,5.1,2.3,5.1,5.1v18.8c0,1.3-0.5,2.7-1.5,3.6C222.7,366.3,221.4,366.8,220.1,366.8z M220.1,339.8
				c-1.7,0-3.1,1.4-3.1,3.1v18.8c0,0.8,0.3,1.6,0.9,2.2c1.2,1.2,3.2,1.2,4.4,0c0.6-0.6,0.9-1.4,0.9-2.2v-18.8
				C223.2,341.2,221.8,339.8,220.1,339.8z"/>
		</g>
	</g>
	<g>
		<g>
			<path class="st1" d="M550.5,476c-5,0-9.8,1.7-13.7,4.7c-3.9,3-6.7,7.3-7.9,12.1h-17.6V440h17.6h0c1.8,7.1,7,12.9,13.9,15.4
				c6.9,2.6,14.6,1.6,20.6-2.6c6-4.2,9.6-11.1,9.6-18.4s-3.6-14.2-9.6-18.4c-6-4.2-13.7-5.2-20.6-2.6c-6.9,2.6-12.1,8.3-13.9,15.4
				h-28.8v32h-22.9V472h22.9v32h28.8c1.4,5.4,4.8,10.2,9.5,13.2c4.7,3.1,10.4,4.2,15.9,3.3c5.5-0.9,10.5-3.9,14-8.4
				c3.4-4.4,5.1-10,4.6-15.6c-0.5-5.6-3.1-10.8-7.2-14.6C561.5,478.1,556.1,476,550.5,476L550.5,476z M550.5,423.2
				c4.5,0,8.6,2.7,10.3,6.9c1.7,4.2,0.8,9-2.4,12.2s-8,4.2-12.2,2.4c-4.2-1.7-6.9-5.8-6.9-10.3C539.3,428.2,544.3,423.2,550.5,423.2
				L550.5,423.2z M550.5,509.6L550.5,509.6c-4.5,0-8.6-2.7-10.3-6.9c-1.7-4.2-0.8-9,2.4-12.2s8-4.2,12.2-2.4
				c4.2,1.7,6.9,5.8,6.9,10.3c0,3-1.2,5.8-3.3,7.9C556.3,508.4,553.4,509.6,550.5,509.6L550.5,509.6z"/>
			<path class="st1" d="M550.5,521.8c-4.5,0-8.9-1.3-12.7-3.8c-4.7-3.1-8.2-7.7-9.7-13h-29v-32h-22.9v-13.2h22.9v-32h29
				c2.1-7.1,7.4-12.8,14.3-15.3c7.2-2.7,15.2-1.6,21.5,2.7c6.3,4.4,10,11.6,10,19.2c0,7.7-3.8,14.8-10,19.2
				c-6.3,4.4-14.3,5.4-21.5,2.7c-6.9-2.6-12.2-8.3-14.3-15.3h-15.8v50.8h15.8c1.4-4.7,4.2-8.9,8.1-11.9c3.7-2.8,8.1-4.5,12.7-4.9
				l0-0.1l1.6,0c0,0,0.1,0,0.1,0c5.9,0,11.5,2.2,15.8,6.1c4.3,4,7,9.4,7.5,15.3c0.5,5.9-1.2,11.7-4.8,16.3
				c-3.6,4.7-8.8,7.8-14.6,8.8C553.2,521.7,551.8,521.8,550.5,521.8z M501.1,503h28.6l0.2,0.8c1.3,5.2,4.6,9.7,9.1,12.6
				c4.5,2.9,9.9,4,15.2,3.1c5.3-0.9,10-3.8,13.3-8c3.3-4.3,4.8-9.6,4.4-14.9c-0.5-5.4-2.9-10.3-6.9-14c-3.9-3.6-8.9-5.6-14.2-5.6
				l-0.3,0c-4.7,0-9.3,1.6-13.1,4.5c-3.7,2.9-6.4,7-7.6,11.5l-0.2,0.8h-19.4V439h18.6v1l1-0.2c1.8,6.8,6.7,12.3,13.3,14.7
				c6.6,2.4,13.9,1.5,19.7-2.5c5.7-4,9.2-10.6,9.2-17.6c0-7-3.4-13.6-9.2-17.6c-5.7-4-13.1-4.9-19.7-2.5s-11.5,7.9-13.3,14.7
				l-0.2,0.8h-28.6v32h-22.9v9.2h22.9V503z M551.5,510.6h-1c0,0,0,0,0,0l0,0h-1.3l0-0.1c-4.4-0.5-8.3-3.3-10-7.5
				c-1.9-4.6-0.9-9.8,2.6-13.3c3.5-3.5,8.7-4.5,13.3-2.6c4.6,1.9,7.5,6.3,7.5,11.3c0,3.3-1.3,6.3-3.6,8.6
				C557,509.1,554.3,510.3,551.5,510.6L551.5,510.6z M550.4,488.2c-2.6,0-5.2,1-7.2,3c-2.9,2.9-3.8,7.3-2.2,11.1
				c1.5,3.6,4.8,6,8.7,6.3l1.8-7.1l0,7.1c2.3-0.2,4.5-1.3,6.2-2.9c1.9-1.9,3-4.5,3-7.2c0-4.1-2.5-7.8-6.3-9.4
				C553.1,488.4,551.8,488.2,550.4,488.2z M550.5,446.6c-1.6,0-3.2-0.3-4.7-0.9c-4.6-1.9-7.5-6.3-7.5-11.3c0-6.7,5.5-12.2,12.2-12.2
				c5,0,9.4,3,11.3,7.5c1.9,4.6,0.9,9.8-2.6,13.3C556.7,445.4,553.6,446.6,550.5,446.6z M550.5,424.2c-5.6,0-10.2,4.6-10.2,10.2
				c0,4.1,2.5,7.8,6.3,9.4c3.8,1.6,8.2,0.7,11.1-2.2c2.9-2.9,3.8-7.3,2.2-11.1C558.3,426.7,554.6,424.2,550.5,424.2z"/>
		</g>
		<g>
			<path class="st1" d="M550.5,522.3c-4.6,0-9.1-1.3-13-3.8c-4.7-3.1-8.2-7.6-9.8-13h-29.2v-32h-22.9v-14.2h22.9v-32h29.2
				c2.2-7.1,7.5-12.7,14.5-15.3c7.3-2.7,15.5-1.7,22,2.8c6.4,4.5,10.3,11.8,10.3,19.6c0,7.8-3.8,15.2-10.3,19.6
				c-6.4,4.5-14.6,5.5-22,2.8c-7-2.6-12.3-8.3-14.5-15.3h-14.9v49.8h14.9c1.4-4.6,4.3-8.8,8.2-11.8c3.5-2.7,7.8-4.4,12.2-4.9
				l-0.1-0.1l2.4,0c0,0,0.1,0,0.1,0c6,0,11.7,2.2,16.1,6.3c4.4,4.1,7.2,9.6,7.7,15.6c0.5,6-1.2,11.9-4.9,16.7c-3.7,4.8-9,7.9-14.9,9
				C553.2,522.2,551.9,522.3,550.5,522.3z M501.6,502.5H530l0.3,1.1c1.3,5.1,4.5,9.5,8.9,12.3c4.4,2.9,9.7,3.9,14.9,3.1
				c5.2-0.9,9.8-3.7,13-7.8c3.2-4.2,4.7-9.3,4.3-14.6c-0.5-5.2-2.8-10.1-6.7-13.6c-3.8-3.5-8.7-5.4-13.9-5.5l-0.3,0
				c-4.6,0-9.1,1.6-12.8,4.4c-3.6,2.8-6.3,6.8-7.4,11.3l-0.3,1.1h-20.2v-55.8h19.1v1.5l1.4-0.4c1.7,6.6,6.6,12,13,14.4
				c6.4,2.4,13.6,1.5,19.2-2.4c5.6-3.9,9-10.3,9-17.2c0-6.8-3.4-13.2-9-17.2c-5.6-3.9-12.8-4.8-19.2-2.4c-6.4,2.4-11.3,7.8-13,14.4
				l-0.3,1.1h-28.4v32h-22.9v8.2h22.9V502.5z M552,511.1h-1.5c0,0,0,0,0,0h-1.9l0-0.1c-4.4-0.6-8.1-3.5-9.8-7.7
				c-2-4.8-0.9-10.2,2.8-13.8c3.6-3.6,9.1-4.7,13.8-2.8c4.8,2,7.8,6.6,7.8,11.7c0,3.4-1.3,6.6-3.7,9
				C557.4,509.4,554.8,510.7,552,511.1L552,511.1z M550.4,488.7c-2.5,0-5,1-6.8,2.8c-2.8,2.8-3.6,6.9-2.1,10.6
				c1.4,3.3,4.4,5.5,7.8,5.9l2.7-10.6l0,10.6c2-0.3,3.9-1.3,5.4-2.7c1.8-1.8,2.8-4.3,2.8-6.9c0-3.9-2.4-7.5-6-9
				C553,488.9,551.7,488.7,550.4,488.7z M550.5,447.1c-1.6,0-3.3-0.3-4.9-1c-4.8-2-7.8-6.6-7.8-11.7c0-7,5.7-12.7,12.7-12.7
				c5.2,0,9.8,3.1,11.7,7.8c2,4.8,0.9,10.2-2.8,13.8C557,445.8,553.8,447.1,550.5,447.1z M550.5,424.7c-5.3,0-9.7,4.4-9.7,9.7
				c0,3.9,2.3,7.5,6,9c3.6,1.5,7.8,0.7,10.6-2.1c2.8-2.8,3.6-6.9,2.1-10.6C557.9,427,554.4,424.7,550.5,424.7z"/>
			<path class="st1" d="M550.5,523.3c-4.8,0-9.5-1.4-13.5-4c-4.7-3-8.2-7.6-10-12.8h-29.4v-32h-22.9v-16.2h22.9v-32H527
				c2.4-7,7.9-12.7,14.9-15.2c7.6-2.8,16.2-1.7,22.9,2.9c6.7,4.7,10.7,12.3,10.7,20.4c0,8.1-4,15.8-10.7,20.4
				c-6.7,4.7-15.2,5.7-22.9,2.9c-7-2.6-12.5-8.2-14.9-15.2h-13.2v47.8H527c1.6-4.5,4.5-8.6,8.3-11.6c3.3-2.6,7.2-4.3,11.3-4.9
				l-0.2-0.3l4,0c6.3,0,12.3,2.3,16.9,6.5c4.6,4.2,7.5,10,8,16.2c0.5,6.2-1.3,12.4-5.1,17.4c-3.8,5-9.3,8.3-15.5,9.3
				C553.3,523.2,551.9,523.3,550.5,523.3L550.5,523.3C550.5,523.3,550.5,523.3,550.5,523.3z M499.6,504.5h28.9l0.2,0.7
				c1.6,5.1,4.9,9.5,9.4,12.4c3.7,2.4,8,3.7,12.4,3.7c0,0,0,0,0,0l0,0c1.3,0,2.6-0.1,3.9-0.3c5.7-1,10.7-4,14.3-8.6
				c3.5-4.6,5.2-10.2,4.7-16c-0.5-5.7-3.1-11-7.4-14.9c-4.2-3.9-9.7-6-15.4-6l-1.2,0l-1.1,0.1c-4.3,0.4-8.3,2.1-11.7,4.7
				c-3.7,2.8-6.4,6.8-7.8,11.3l-0.2,0.7h-16.7v-51.8h16.1v-1h-17.1v53.8h18.5l0.1-0.4c1.2-4.7,4-8.9,7.8-11.8
				c3.8-3,8.6-4.6,13.4-4.6l0.3,0c5.4,0.1,10.6,2.1,14.6,5.7c4.1,3.7,6.6,8.8,7,14.3c0.5,5.5-1.1,10.9-4.5,15.3
				c-3.4,4.4-8.2,7.3-13.6,8.2c-5.4,0.9-11-0.2-15.6-3.2c-4.6-3-7.9-7.6-9.3-12.9l-0.1-0.4h-28.7v-32h-22.9v-10.2h22.9v-32h28.7
				l0.1-0.4c1.8-6.9,6.9-12.6,13.6-15.1c6.7-2.5,14.2-1.5,20.1,2.6c5.9,4.1,9.4,10.8,9.4,18c0,7.2-3.5,13.9-9.4,18
				c-5.9,4.1-13.4,5-20.1,2.6c-6.4-2.4-11.3-7.6-13.3-14.1l-1,0.2l0,0.1c2.1,6.7,7.3,12.2,13.9,14.7c7,2.6,14.9,1.6,21-2.7
				c6.2-4.3,9.8-11.3,9.8-18.8c0-7.5-3.7-14.5-9.8-18.8c-6.2-4.3-14-5.3-21-2.7c-6.6,2.5-11.8,7.9-13.9,14.7l-0.2,0.7h-28.9v32
				h-22.9v12.2h22.9V504.5z M502.6,501.5h28.2l0.5,1.9c1.3,4.8,4.3,9,8.5,11.7c4.2,2.7,9.2,3.8,14.2,2.9c4.9-0.8,9.3-3.5,12.4-7.5
				c3.1-4,4.5-8.9,4.1-13.9c-0.4-5-2.7-9.6-6.4-13c-3.6-3.3-8.3-5.2-13.2-5.2l-0.3,0c-4.4,0-8.7,1.5-12.2,4.2
				c-3.5,2.7-6,6.5-7.1,10.7l-0.5,1.9h-22v-57.8h21.1v1.2l1.2-0.3l0.2,1c1.6,6.3,6.2,11.4,12.3,13.7c6.1,2.3,12.9,1.4,18.3-2.3
				c5.3-3.7,8.5-9.8,8.5-16.3c0-6.5-3.2-12.6-8.5-16.3s-12.2-4.6-18.3-2.3c-6.1,2.3-10.7,7.4-12.3,13.7l-0.5,1.9h-28.2v32h-22.9v6.2
				h22.9V501.5z M552,512.1h-4.7l0.1-0.4c-4.3-1-7.8-4-9.5-8.1c-2.1-5.1-1-11,3-14.9c3.9-3.9,9.8-5.1,14.9-3
				c5.1,2.1,8.5,7.1,8.5,12.7c0,3.7-1.4,7.1-4,9.7c-1.9,1.9-4.5,3.3-7.2,3.8v0.1L552,512.1z M549.6,510.1h1.6l0.7-0.1
				c2.6-0.3,5.1-1.5,6.9-3.3c2.2-2.2,3.4-5.2,3.4-8.3c0-4.7-2.8-9-7.2-10.8c-4.4-1.8-9.4-0.8-12.8,2.5c-3.4,3.4-4.4,8.4-2.5,12.8
				c1.6,3.8,5,6.5,9.1,7.1L549.6,510.1z M551,509.1v-3.6l-0.9,3.6l-0.9-0.1c-3.8-0.5-7.1-3-8.6-6.5c-1.7-4-0.8-8.6,2.3-11.7
				c2-2,4.7-3.1,7.6-3.1c1.4,0,2.8,0.3,4.1,0.8c4,1.7,6.6,5.5,6.6,9.9c0,2.9-1.1,5.5-3.1,7.6c-1.6,1.6-3.7,2.6-5.9,3L551,509.1z
				 M550.4,489.7c-2.3,0-4.5,0.9-6.1,2.6c-2.5,2.5-3.2,6.2-1.9,9.5c1.1,2.6,3.4,4.6,6.1,5.2l4.2-16.9
				C552,489.8,551.2,489.7,550.4,489.7z M553,490.1l0,16.7c1.4-0.4,2.6-1.2,3.6-2.2c1.6-1.6,2.6-3.8,2.6-6.2c0-3.5-2.1-6.7-5.4-8
				C553.5,490.2,553.2,490.1,553,490.1z M550.5,448.1c-1.8,0-3.6-0.4-5.3-1c-5.1-2.1-8.5-7.1-8.5-12.7c0-7.6,6.1-13.7,13.7-13.7
				c5.6,0,10.5,3.3,12.7,8.5c2.1,5.1,1,11-3,14.9C557.5,446.7,554.1,448.1,550.5,448.1z M550.5,422.7c-6.5,0-11.7,5.2-11.7,11.7
				c0,4.8,2.8,9,7.2,10.8c1.4,0.6,2.9,0.9,4.5,0.9c3.1,0,6-1.2,8.3-3.4c3.4-3.4,4.4-8.4,2.5-12.8
				C559.4,425.5,555.2,422.7,550.5,422.7z M550.5,445.1c-1.4,0-2.8-0.3-4.1-0.8c-4-1.7-6.6-5.5-6.6-9.9c0-5.9,4.8-10.7,10.7-10.7
				c4.3,0,8.2,2.6,9.9,6.6c1.7,4,0.8,8.6-2.3,11.7C556,444,553.2,445.1,550.5,445.1z M550.5,425.7c-4.8,0-8.7,3.9-8.7,8.7
				c0,3.5,2.1,6.7,5.4,8c3.3,1.4,7,0.6,9.5-1.9c2.5-2.5,3.2-6.2,1.9-9.5C557.1,427.8,554,425.7,550.5,425.7z"/>
		</g>
	</g>
	<g>
		<g>
			<path class="st1" d="M175.3,428.8h-28.8c-1.8-7.1-7-12.9-13.9-15.4c-6.9-2.6-14.6-1.6-20.6,2.6c-6,4.2-9.6,11.1-9.6,18.4
				s3.6,14.2,9.6,18.4c6,4.2,13.7,5.2,20.6,2.6c6.9-2.6,12.1-8.3,13.9-15.4h17.6v52.8h-17.6c-1.8-7.1-7-12.9-13.9-15.4
				c-6.9-2.6-14.6-1.6-20.6,2.6c-6,4.2-9.6,11.1-9.6,18.4c0,7.3,3.6,14.2,9.6,18.4c6,4.2,13.7,5.2,20.6,2.6
				c6.9-2.6,12.1-8.3,13.9-15.4h28.8v-32h22.9v-11.2h-22.9V428.8z M124.9,445.6L124.9,445.6c-4.5,0-8.6-2.7-10.4-6.9
				c-1.7-4.2-0.8-9,2.4-12.2c3.2-3.2,8-4.2,12.2-2.4c4.2,1.7,6.9,5.8,6.9,10.3c0,3-1.2,5.8-3.3,7.9
				C130.7,444.4,127.8,445.6,124.9,445.6L124.9,445.6z M124.9,509.6L124.9,509.6c-4.5,0-8.6-2.7-10.4-6.9c-1.7-4.2-0.8-9,2.4-12.2
				c3.2-3.2,8-4.2,12.2-2.4c4.2,1.7,6.9,5.8,6.9,10.3c0,3-1.2,5.8-3.3,7.9C130.7,508.4,127.8,509.6,124.9,509.6L124.9,509.6z"/>
			<path class="st1" d="M124.8,521.8c-4.7,0-9.4-1.4-13.4-4.2c-6.3-4.4-10-11.6-10-19.2c0-7.7,3.8-14.8,10-19.2
				c6.3-4.4,14.3-5.4,21.5-2.7c6.9,2.6,12.2,8.3,14.3,15.3h15.8V441h-15.8c-2.1,7.1-7.4,12.8-14.3,15.3c-7.2,2.7-15.2,1.6-21.5-2.7
				c-6.3-4.4-10-11.6-10-19.2c0-7.7,3.8-14.8,10-19.2c6.3-4.4,14.3-5.4,21.5-2.7c6.9,2.6,12.2,8.3,14.3,15.3h29v32h22.9V473h-22.9
				v32h-29c-2.1,7.1-7.4,12.8-14.3,15.3C130.3,521.3,127.5,521.8,124.8,521.8z M124.8,477c-4.3,0-8.6,1.3-12.2,3.8
				c-5.7,4-9.2,10.6-9.2,17.6c0,7,3.4,13.6,9.2,17.6c5.7,4,13.1,4.9,19.7,2.5c6.6-2.4,11.5-7.9,13.3-14.7l0.2-0.8h28.6v-32h22.9
				v-9.2h-22.9v-32h-28.6l-0.2-0.8c-1.7-6.8-6.7-12.3-13.3-14.7c-6.6-2.4-13.9-1.5-19.7,2.5c-5.7,4-9.2,10.6-9.2,17.6
				c0,7,3.4,13.6,9.2,17.6c5.7,4,13.1,4.9,19.7,2.5c6.6-2.4,11.5-7.9,13.3-14.7l0.2-0.8h19.4v54.8h-19.4l-0.2-0.8
				c-1.7-6.8-6.7-12.3-13.3-14.7C129.8,477.4,127.3,477,124.8,477z M124.9,510.6L124.9,510.6c-5,0-9.4-3-11.3-7.5
				c-1.9-4.6-0.9-9.8,2.6-13.3c3.5-3.5,8.7-4.5,13.3-2.6c4.6,1.9,7.5,6.3,7.5,11.3c0,3.3-1.3,6.3-3.6,8.6
				C131.2,509.3,128.1,510.6,124.9,510.6L124.9,510.6z M124.8,488.2c-2.6,0-5.2,1-7.2,3c-2.9,2.9-3.8,7.3-2.2,11.1
				c1.6,3.8,5.3,6.3,9.4,6.3c2.7,0,5.3-1.1,7.2-3c1.9-1.9,3-4.5,3-7.2c0-4.1-2.5-7.8-6.3-9.4C127.5,488.4,126.2,488.2,124.8,488.2z
				 M124.9,446.6L124.9,446.6c-5,0-9.4-3-11.3-7.5c-1.9-4.6-0.9-9.8,2.6-13.3c3.5-3.5,8.7-4.5,13.3-2.6c4.6,1.9,7.5,6.3,7.5,11.3
				c0,3.3-1.3,6.3-3.6,8.6C131.2,445.3,128.1,446.6,124.9,446.6L124.9,446.6z M124.8,424.2c-2.6,0-5.2,1-7.2,3
				c-2.9,2.9-3.8,7.3-2.2,11.1c1.6,3.8,5.3,6.3,9.4,6.3c2.7,0,5.3-1.1,7.2-3c1.9-1.9,3-4.5,3-7.2c0-4.1-2.5-7.8-6.3-9.4
				C127.5,424.4,126.2,424.2,124.8,424.2z"/>
		</g>
		<g>
			<path class="st1" d="M124.8,522.3c-4.8,0-9.6-1.5-13.7-4.3c-6.4-4.5-10.3-11.8-10.3-19.6c0-7.8,3.8-15.2,10.3-19.6
				s14.6-5.5,22-2.8c7,2.6,12.3,8.3,14.5,15.3h14.9v-49.8h-14.9c-2.2,7.1-7.5,12.7-14.5,15.3c-7.3,2.7-15.5,1.7-22-2.8
				c-6.4-4.5-10.3-11.8-10.3-19.6c0-7.8,3.8-15.2,10.3-19.6c6.4-4.5,14.6-5.5,22-2.8c7,2.6,12.3,8.3,14.5,15.3h29.2v32h22.9v14.2
				h-22.9v32h-29.2c-2.2,7.1-7.5,12.7-14.5,15.3C130.4,521.8,127.6,522.3,124.8,522.3z M124.8,477.5c-4.2,0-8.4,1.3-11.9,3.7
				c-5.6,3.9-9,10.3-9,17.2c0,6.8,3.4,13.3,9,17.2c5.6,3.9,12.8,4.8,19.2,2.4c6.4-2.4,11.3-7.8,13-14.4l0.3-1.1h28.4v-32h22.9v-8.2
				h-22.9v-32h-28.4l-0.3-1.1c-1.7-6.6-6.6-12-13-14.4c-6.4-2.4-13.6-1.5-19.2,2.4s-9,10.3-9,17.2c0,6.8,3.4,13.3,9,17.2
				s12.8,4.8,19.2,2.4c6.4-2.4,11.3-7.8,13-14.4l0.3-1.1h20.2v55.8h-20.2l-0.3-1.1c-1.7-6.6-6.6-12-13-14.4
				C129.7,477.9,127.2,477.5,124.8,477.5z M124.9,511.1L124.9,511.1c-5.2,0-9.8-3.1-11.7-7.8c-2-4.8-0.9-10.2,2.8-13.8
				c3.6-3.6,9.1-4.7,13.8-2.8c4.8,2,7.8,6.6,7.8,11.7c0,3.4-1.3,6.6-3.7,9C131.4,509.8,128.2,511.1,124.9,511.1L124.9,511.1z
				 M124.8,488.7c-2.5,0-5,1-6.8,2.8c-2.8,2.8-3.6,6.9-2.1,10.6c1.5,3.6,5,6,9,6c2.6,0,5-1,6.9-2.8c1.8-1.8,2.8-4.3,2.8-6.9
				c0-3.9-2.3-7.5-6-9C127.4,488.9,126.1,488.7,124.8,488.7z M124.9,447.1L124.9,447.1c-5.2,0-9.8-3.1-11.7-7.8
				c-2-4.8-0.9-10.2,2.8-13.8c3.6-3.6,9.1-4.7,13.8-2.8c4.8,2,7.8,6.6,7.8,11.7c0,3.4-1.3,6.6-3.7,9
				C131.4,445.8,128.2,447.1,124.9,447.1L124.9,447.1z M124.8,424.7c-2.5,0-5,1-6.9,2.8c-2.8,2.8-3.6,6.9-2.1,10.6c1.5,3.6,5,6,9,6
				c2.6,0,5-1,6.9-2.8c1.8-1.8,2.8-4.3,2.8-6.9c0-3.9-2.4-7.5-6-9C127.4,424.9,126.1,424.7,124.8,424.7z"/>
			<path class="st1" d="M124.8,523.3c-5.1,0-10-1.5-14.2-4.5c-6.7-4.7-10.7-12.3-10.7-20.4c0-8.1,4-15.8,10.7-20.4
				c6.7-4.7,15.2-5.7,22.9-2.9c7,2.6,12.5,8.2,14.9,15.2h13.2v-47.8h-13.2c-2.4,7-7.9,12.7-14.9,15.2c-7.6,2.8-16.2,1.8-22.9-2.9
				c-6.7-4.7-10.7-12.3-10.7-20.4c0-8.1,4-15.8,10.7-20.4c6.7-4.7,15.2-5.7,22.9-2.9c7,2.6,12.5,8.2,14.9,15.2h29.4v32h22.9v16.2
				h-22.9v32h-29.4c-2.4,7-7.9,12.7-14.9,15.2C130.7,522.8,127.8,523.3,124.8,523.3z M124.8,475.5c-4.6,0-9.2,1.4-13.1,4.1
				c-6.2,4.3-9.8,11.3-9.8,18.8c0,7.5,3.7,14.5,9.8,18.8c3.9,2.7,8.4,4.1,13.1,4.1c2.7,0,5.4-0.5,8-1.4c6.6-2.5,11.8-7.9,13.9-14.7
				l0.2-0.7h28.9v-32h22.9v-12.2h-22.9v-32h-28.9l-0.2-0.7c-2.1-6.7-7.3-12.2-13.9-14.7c-7-2.6-14.9-1.6-21,2.7
				c-6.2,4.3-9.8,11.3-9.8,18.8c0,7.5,3.7,14.5,9.8,18.8c6.2,4.3,14,5.3,21,2.7c6.6-2.5,11.8-7.9,13.9-14.7l0.2-0.7h16.7v51.8h-16.7
				l-0.2-0.7c-2.1-6.7-7.3-12.2-13.9-14.7C130.2,476,127.5,475.5,124.8,475.5z M124.8,520.3c-4.4,0-8.8-1.3-12.5-3.9
				c-5.9-4.1-9.4-10.8-9.4-18c0-7.2,3.5-13.9,9.4-18c3.7-2.6,8-3.9,12.5-3.9c2.6,0,5.2,0.5,7.6,1.4c6.7,2.5,11.8,8.1,13.6,15.1
				l0.1,0.4h18.5v-53.8h-18.5l-0.1,0.4c-1.8,6.9-6.9,12.6-13.6,15.1c-6.7,2.5-14.2,1.5-20.1-2.6c-5.9-4.1-9.4-10.8-9.4-18
				c0-7.2,3.5-13.9,9.4-18c5.9-4.1,13.4-5,20.1-2.6c6.7,2.5,11.8,8.1,13.6,15.1l0.1,0.4h28.7v32h22.9v10.2h-22.9v32h-28.7l-0.1,0.4
				c-1.8,6.9-6.9,12.6-13.6,15.1C129.9,519.8,127.4,520.3,124.8,520.3z M124.8,478.5c-4.1,0-8,1.2-11.4,3.6
				c-5.3,3.7-8.5,9.8-8.5,16.3c0,6.5,3.2,12.6,8.5,16.3c5.3,3.7,12.2,4.6,18.3,2.3c6.1-2.3,10.7-7.4,12.3-13.7l0.5-1.9h28.2v-32
				h22.9v-6.2h-22.9v-32h-28.2l-0.5-1.9c-1.6-6.3-6.2-11.4-12.3-13.7c-6.1-2.3-12.9-1.4-18.3,2.3c-5.3,3.7-8.5,9.8-8.5,16.3
				c0,6.5,3.2,12.6,8.5,16.3c5.3,3.7,12.2,4.6,18.3,2.3c6.1-2.3,10.7-7.4,12.3-13.7l0.5-1.9h22v57.8h-22l-0.5-1.9
				c-1.6-6.3-6.2-11.4-12.3-13.7C129.5,478.9,127.2,478.5,124.8,478.5z M124.9,512.1L124.9,512.1c-5.6,0-10.5-3.3-12.7-8.5
				c-2.1-5.1-1-11,3-14.9c3.9-3.9,9.8-5.1,14.9-3c5.1,2.1,8.5,7.1,8.5,12.7c0,3.7-1.4,7.1-4,9.7C132,510.7,128.5,512.1,124.9,512.1z
				 M124.8,486.7c-3,0-6,1.2-8.3,3.4c-3.4,3.4-4.4,8.4-2.5,12.8c1.8,4.4,6.1,7.2,10.8,7.2l0,1v-1c3.1,0,6.1-1.2,8.3-3.4
				c2.2-2.2,3.4-5.1,3.4-8.3c0-4.8-2.8-9-7.2-10.8C127.9,487,126.3,486.7,124.8,486.7z M124.9,509.1c-4.3,0-8.2-2.6-9.9-6.6
				c-1.7-4-0.8-8.6,2.3-11.7c2-2,4.7-3.1,7.6-3.1c1.4,0,2.8,0.3,4.1,0.8c4,1.7,6.6,5.5,6.6,9.9c0,2.9-1.1,5.5-3.1,7.6
				C130.4,508,127.7,509.1,124.9,509.1z M124.8,489.7c-2.3,0-4.5,0.9-6.1,2.6c-2.5,2.5-3.2,6.2-1.9,9.5c1.4,3.3,4.5,5.4,8,5.4
				c2.3,0,4.5-0.9,6.2-2.5c1.6-1.6,2.5-3.8,2.5-6.2c0-3.5-2.1-6.7-5.4-8C127.1,489.9,126,489.7,124.8,489.7z M124.9,448.1
				L124.9,448.1c-5.6,0-10.5-3.3-12.7-8.5c-2.1-5.1-1-11,3-14.9c3.9-3.9,9.8-5.1,14.9-3c5.1,2.1,8.5,7.1,8.5,12.7
				c0,3.7-1.4,7.1-4,9.7C132,446.7,128.5,448.1,124.9,448.1z M124.8,422.7c-3,0-6,1.2-8.3,3.4c-3.4,3.4-4.4,8.4-2.5,12.8
				c1.8,4.4,6.1,7.2,10.8,7.2l0,1v-1c3.1,0,6.1-1.2,8.3-3.4c2.2-2.2,3.4-5.1,3.4-8.3c0-4.7-2.8-9-7.2-10.8
				C127.9,423,126.4,422.7,124.8,422.7z M124.9,445.1c-4.3,0-8.2-2.6-9.9-6.6c-1.7-4-0.8-8.6,2.3-11.7c2-2,4.7-3.1,7.6-3.1
				c1.4,0,2.8,0.3,4.1,0.8c4,1.7,6.6,5.5,6.6,9.9c0,2.9-1.1,5.5-3.1,7.6C130.4,444,127.7,445.1,124.9,445.1z M124.8,425.7
				c-2.3,0-4.5,0.9-6.1,2.6c-2.5,2.5-3.2,6.2-1.9,9.5c1.4,3.3,4.5,5.4,8,5.4c2.3,0,4.5-0.9,6.2-2.5c1.6-1.6,2.5-3.8,2.5-6.2
				c0-3.5-2.1-6.7-5.4-8C127.1,425.9,126,425.7,124.8,425.7z"/>
		</g>
	</g>
	<g>
		<g>
			<path class="st1" d="M298.5,238.8c-3.1,0-5.6,2.5-5.6,5.6v7.2c0,3.1,2.5,5.6,5.6,5.6s5.6-2.5,5.6-5.6v-7.2c0-1.5-0.6-2.9-1.6-4
				C301.4,239.4,299.9,238.8,298.5,238.8L298.5,238.8z"/>
			<path class="st1" d="M298.5,258.2c-3.6,0-6.6-3-6.6-6.6v-7.2c0-3.6,3-6.6,6.6-6.6c1.7,0,3.4,0.7,4.7,1.9c1.2,1.2,1.9,2.9,1.9,4.7
				v7.2C305.1,255.2,302.1,258.2,298.5,258.2z M298.5,239.8c-2.5,0-4.6,2.1-4.6,4.6v7.2c0,2.5,2.1,4.6,4.6,4.6
				c2.5,0,4.6-2.1,4.6-4.6v-7.2c0-1.2-0.5-2.4-1.3-3.3C300.9,240.3,299.7,239.8,298.5,239.8z"/>
		</g>
		<g>
			<path class="st1" d="M298.5,258.7c-3.9,0-7.1-3.2-7.1-7.1v-7.2c0-3.9,3.2-7.1,7.1-7.1c1.9,0,3.7,0.8,5,2.1c1.3,1.3,2.1,3.1,2.1,5
				v7.2C305.6,255.5,302.4,258.7,298.5,258.7z M298.5,240.3c-2.3,0-4.1,1.8-4.1,4.1v7.2c0,2.3,1.8,4.1,4.1,4.1
				c2.3,0,4.1-1.8,4.1-4.1v-7.2c0-1.1-0.4-2.1-1.2-2.9C300.6,240.8,299.5,240.3,298.5,240.3z"/>
			<path class="st1" d="M298.5,259.7c-4.5,0-8.1-3.6-8.1-8.1v-7.2c0-4.5,3.6-8.1,8.1-8.1c2.1,0,4.2,0.9,5.7,2.4
				c1.5,1.5,2.4,3.6,2.4,5.7v7.2C306.6,256.1,302.9,259.7,298.5,259.7z M298.5,238.3c-3.4,0-6.1,2.7-6.1,6.1v7.2
				c0,3.4,2.7,6.1,6.1,6.1c3.4,0,6.1-2.7,6.1-6.1v-7.2c0-1.6-0.6-3.2-1.8-4.3C301.6,239,300.1,238.3,298.5,238.3z M298.5,256.7
				c-2.8,0-5.1-2.3-5.1-5.1v-7.2c0-2.8,2.3-5.1,5.1-5.1c1.3,0,2.7,0.5,3.6,1.5c1,1,1.5,2.2,1.5,3.6v7.2
				C303.6,254.4,301.3,256.7,298.5,256.7z M298.5,241.3c-1.7,0-3.1,1.4-3.1,3.1v7.2c0,1.7,1.4,3.1,3.1,3.1c1.7,0,3.1-1.4,3.1-3.1
				v-7.2c0-0.8-0.3-1.6-0.9-2.2C300.1,241.7,299.3,241.3,298.5,241.3z"/>
		</g>
	</g>
</g>
</svg>
