<?xml version="1.0" encoding="utf-8"?>
<!-- Generator: Adobe Illustrator 26.1.0, SVG Export Plug-In . SVG Version: 6.00 Build 0)  -->
<svg version="1.1" id="Layer_1" xmlns="http://www.w3.org/2000/svg" xmlns:xlink="http://www.w3.org/1999/xlink" x="0px" y="0px"
	 viewBox="0 0 700 700" style="enable-background:new 0 0 700 700;" xml:space="preserve">
<style type="text/css">
	.st0{fill-rule:evenodd;clip-rule:evenodd;fill:#2081E2;}
	.st1{fill:#2081E2;}
</style>
<path class="st1" d="M560,324.6h-5.8v-52.5c0-17-6.8-33.3-18.8-45.4S507,208,490,208h-16.1l-81.4-81.4c-11.3-11.3-26.4-18-42.4-18.8
	c-16-0.7-31.7,4.6-43.9,14.9L203.7,208h-40.3c-17,0-33.3,6.8-45.4,18.8c-12,12-18.8,28.3-18.8,45.4v256.7c0,17,6.8,33.3,18.8,45.4
	c12,12,28.3,18.8,45.4,18.8H490c17,0,33.3-6.8,45.4-18.8c12-12,18.8-28.3,18.8-45.4v-52.5h5.8c10.8,0,21.2-4.3,28.9-12
	c7.7-7.7,12-18,12-28.9v-70c0-10.8-4.3-21.2-12-28.9C581.2,328.9,570.8,324.6,560,324.6L560,324.6z M328.5,149.6
	c5.6-4.7,12.7-7.1,20-6.8c7.3,0.3,14.2,3.4,19.3,8.5l56.7,56.6H258.3L328.5,149.6z M519.2,528.8c0,7.7-3.1,15.1-8.6,20.6
	c-5.5,5.5-12.9,8.5-20.6,8.6H163.3c-7.7,0-15.1-3.1-20.6-8.6c-5.5-5.5-8.5-12.9-8.6-20.6V272.1c0-7.7,3.1-15.1,8.6-20.6
	c5.5-5.5,12.9-8.5,20.6-8.6H490c7.7,0,15.1,3.1,20.6,8.6c5.5,5.5,8.5,12.9,8.6,20.6v52.5h-52.5c-10.8,0-21.2,4.3-28.9,12
	c-7.7,7.7-12,18-12,28.9v70c0,10.8,4.3,21.2,12,28.9c7.7,7.7,18,12,28.9,12h52.5V528.8z M565.8,435.5L565.8,435.5
	c0,1.5-0.6,3-1.7,4.1s-2.6,1.7-4.1,1.7h-93.3c-3.2,0-5.8-2.6-5.8-5.8v-70c0-3.2,2.6-5.8,5.8-5.8H560c1.5,0,3,0.6,4.1,1.7
	s1.7,2.6,1.7,4.1L565.8,435.5z"/>
</svg>
