<?xml version="1.0" encoding="UTF-8"?><svg xmlns="http://www.w3.org/2000/svg" viewBox="0 0 458.53 100"><defs><style>.c,.d{fill:#04111d;}.e{fill:#fff;}.f{fill:#2081e2;}.d{stroke:#04111d;stroke-miterlimit:10;stroke-width:2px;}</style></defs><g id="a"><path class="f" d="M100,50c0,27.61-22.39,50-50,50S0,77.61,0,50,22.39,0,50,0s50,22.39,50,50Z"/><path class="c" d="M148.72,68.5c-4.52,0-8.68-1.01-12.46-3.04-3.74-2.03-6.74-4.84-8.97-8.46-2.19-3.66-3.29-7.75-3.29-12.29s1.1-8.61,3.29-12.22c2.24-3.61,5.23-6.43,8.97-8.46,3.79-2.03,7.94-3.04,12.46-3.04s8.65,1.01,12.4,3.04c3.79,2.03,6.76,4.84,8.9,8.46,2.19,3.61,3.29,7.68,3.29,12.22s-1.1,8.63-3.29,12.29c-2.19,3.61-5.16,6.43-8.9,8.46-3.74,2.03-7.88,3.04-12.4,3.04Zm0-10.31c3.83,0,6.89-1.23,9.18-3.7,2.33-2.47,3.49-5.73,3.49-9.78s-1.16-7.35-3.49-9.78c-2.28-2.47-5.34-3.7-9.18-3.7s-6.99,1.21-9.31,3.63c-2.28,2.42-3.42,5.7-3.42,9.84s1.14,7.38,3.42,9.84c2.33,2.42,5.43,3.63,9.31,3.63Z"/><path class="c" d="M191.54,36.39c1.14-1.72,2.72-3.1,4.73-4.16,2.01-1.06,4.36-1.59,7.05-1.59,3.15,0,6,.77,8.56,2.31,2.56,1.54,4.56,3.74,6.03,6.61,1.51,2.86,2.26,6.19,2.26,9.98s-.75,7.13-2.26,10.04c-1.46,2.86-3.47,5.09-6.03,6.67-2.56,1.54-5.41,2.31-8.56,2.31-2.65,0-5-.53-7.05-1.59-2.01-1.06-3.58-2.42-4.73-4.1v16.12h-11.71V31.17h11.71v5.22Zm16.71,13.15c0-2.82-.82-5.02-2.47-6.61-1.6-1.63-3.58-2.44-5.96-2.44s-4.31,.81-5.96,2.44c-1.6,1.63-2.4,3.85-2.4,6.67s.8,5.04,2.4,6.67c1.64,1.63,3.63,2.44,5.96,2.44s4.31-.81,5.96-2.44c1.64-1.67,2.47-3.92,2.47-6.74Z"/><path class="c" d="M262.33,49.01c0,1.06-.07,2.16-.21,3.3h-26.5c.18,2.29,.94,4.05,2.26,5.28,1.37,1.19,3.04,1.78,5,1.78,2.92,0,4.95-1.19,6.1-3.57h12.46c-.64,2.42-1.8,4.6-3.49,6.54-1.64,1.94-3.72,3.46-6.23,4.56-2.51,1.1-5.32,1.65-8.42,1.65-3.74,0-7.08-.77-10-2.31-2.92-1.54-5.21-3.74-6.85-6.61-1.64-2.86-2.46-6.21-2.46-10.04s.8-7.18,2.4-10.04c1.64-2.86,3.93-5.06,6.85-6.61,2.92-1.54,6.28-2.31,10.07-2.31s6.99,.75,9.86,2.25c2.88,1.5,5.11,3.63,6.71,6.41,1.64,2.77,2.46,6.01,2.46,9.71Zm-11.98-2.97c0-1.94-.68-3.48-2.06-4.62-1.37-1.15-3.08-1.72-5.14-1.72s-3.63,.55-5,1.65c-1.32,1.1-2.15,2.66-2.47,4.69h14.66Z"/><path class="c" d="M291.79,30.78c4.47,0,8.04,1.41,10.68,4.23,2.69,2.77,4.04,6.61,4.04,11.49v21.54h-11.64v-20.02c0-2.47-.66-4.38-1.99-5.75-1.32-1.37-3.1-2.05-5.34-2.05s-4.02,.68-5.34,2.05c-1.32,1.37-1.99,3.28-1.99,5.75v20.02h-11.71V31.17h11.71v4.89c1.19-1.63,2.79-2.91,4.79-3.83,2.01-.97,4.27-1.45,6.78-1.45Z"/><path class="c" d="M332.05,68.5c-3.51,0-6.67-.55-9.45-1.65s-5.02-2.73-6.71-4.89c-1.64-2.16-2.51-4.76-2.6-7.8h12.46c.18,1.72,.8,3.04,1.85,3.96,1.05,.88,2.42,1.32,4.11,1.32s3.1-.37,4.11-1.12c1-.79,1.51-1.87,1.51-3.24,0-1.15-.41-2.09-1.23-2.84-.78-.75-1.76-1.37-2.95-1.85-1.14-.48-2.79-1.03-4.93-1.65-3.11-.92-5.64-1.85-7.6-2.77-1.96-.92-3.65-2.29-5.07-4.1-1.42-1.81-2.12-4.16-2.12-7.07,0-4.32,1.62-7.68,4.86-10.11,3.24-2.47,7.46-3.7,12.67-3.7s9.57,1.23,12.81,3.7c3.24,2.42,4.98,5.81,5.21,10.17h-12.67c-.09-1.5-.66-2.66-1.71-3.5-1.05-.88-2.4-1.32-4.04-1.32-1.42,0-2.56,.37-3.42,1.12-.87,.7-1.3,1.74-1.3,3.1,0,1.5,.73,2.66,2.19,3.5,1.46,.84,3.74,1.74,6.85,2.71,3.11,1.01,5.62,1.98,7.53,2.91,1.96,.92,3.65,2.27,5.07,4.03,1.42,1.76,2.12,4.03,2.12,6.8s-.71,5.04-2.12,7.2c-1.37,2.16-3.38,3.88-6.03,5.15-2.65,1.28-5.78,1.92-9.38,1.92Z"/><path class="c" d="M444.46,51.72c0,1.06-.07,2.16-.21,3.3h-26.5c.18,2.29,.94,4.05,2.26,5.28,1.37,1.19,3.04,1.78,5,1.78,2.92,0,4.95-1.19,6.1-3.57h12.46c-.64,2.42-1.8,4.6-3.49,6.54-1.64,1.94-3.72,3.46-6.23,4.56-2.51,1.1-5.32,1.65-8.42,1.65-3.74,0-7.08-.77-10-2.31-2.92-1.54-5.2-3.74-6.85-6.61-1.64-2.86-2.46-6.21-2.46-10.04s.8-7.18,2.4-10.04c1.64-2.86,3.93-5.06,6.85-6.61s6.28-2.31,10.07-2.31,6.99,.75,9.86,2.25c2.88,1.5,5.11,3.63,6.71,6.41,1.64,2.77,2.47,6.01,2.47,9.71Zm-11.98-2.97c0-1.94-.68-3.48-2.05-4.62s-3.08-1.72-5.14-1.72-3.63,.55-5,1.65c-1.32,1.1-2.15,2.66-2.46,4.69h14.66Z"/><path class="d" d="M374.18,68.03h-9.3l-10.11-31.43h9.36l2.73,10.35c.66,2.6,1.22,4.95,1.67,7.04,.45,2.09,.72,3.52,.81,4.31l.19,1.18c.29-2.48,1.3-6.65,3.04-12.52l3.04-10.35h7.81l2.98,10.35c.74,2.65,1.36,5.01,1.86,7.1,.5,2.09,.81,3.52,.93,4.31l.19,1.12c.29-2.44,1.26-6.61,2.91-12.52l2.91-10.35h8.93l-10.04,31.43h-9.3l-2.73-10.29c-.58-2.23-1.08-4.32-1.52-6.26-.43-1.94-.71-3.33-.84-4.15l-.19-1.24c-.41,2.77-1.28,6.66-2.6,11.66l-2.73,10.29Z"/></g><g id="b"><g><path class="e" d="M82.13,58.45h0c-1.74-1.74-4.56-1.74-6.29,0l-10.57,10.57c-.29,.29-.69,.46-1.1,.46h-28.33c-.41,0-.81-.16-1.1-.46l-10.57-10.57c-1.74-1.74-4.56-1.74-6.29,0h0c-1.74,1.74-1.74,4.56,0,6.29l12.24,12.24c.16,.16,.35,.3,.54,.41,.53,.6,1.29,.98,2.15,.98h34.29c.78,0,1.48-.31,2-.81,.26-.13,.51-.3,.73-.52l12.31-12.31c1.74-1.74,1.74-4.56,0-6.29Z"/><path class="e" d="M33.79,47.63l6.21-6.21c1.74-1.74,1.74-4.56,0-6.29h0c-1.74-1.74-4.56-1.74-6.29,0l-9.06,9.06c-.11,.08-.22,.16-.32,.26l-2.21,2.21c-.57,.57-.85,1.32-.84,2.07,0,.75,.27,1.5,.84,2.07l2.21,2.21c.1,.1,.21,.18,.32,.26l9.06,9.06c1.74,1.74,4.56,1.74,6.29,0h0c1.74-1.74,1.74-4.56,0-6.29l-6.21-6.21c-.61-.61-.61-1.6,0-2.21Z"/><rect class="e" x="21.51" y="45.53" width="56.98" height="8.22" rx="4.11" ry="4.11" transform="translate(110.36 13.3) rotate(104.15)"/><path class="e" d="M78.24,46.16l-2.21-2.21c-.1-.1-.21-.18-.32-.26l-9.06-9.06c-1.74-1.74-4.56-1.74-6.29,0h0c-1.74,1.74-1.74,4.56,0,6.29l6.21,6.21c.61,.61,.61,1.6,0,2.21l-6.21,6.21c-1.74,1.74-1.74,4.56,0,6.29h0c1.74,1.74,4.56,1.74,6.29,0l9.06-9.06c.11-.08,.22-.16,.32-.26l2.21-2.21c.57-.57,.85-1.32,.84-2.07,0-.75-.27-1.5-.84-2.07Z"/></g></g></svg>